<svg xmlns="http://www.w3.org/2000/svg" xmlns:xlink="http://www.w3.org/1999/xlink" width="950.71" height="311.81" viewBox="0 0 950.71 311.81"><defs><style>.cls-1,.cls-7{fill:#fff;}.cls-2,.cls-3,.cls-4,.cls-5{fill:none;}.cls-2,.cls-3{stroke:#000;}.cls-2,.cls-3,.cls-4,.cls-5,.cls-7{stroke-miterlimit:10;}.cls-2{stroke-width:17px;}.cls-3,.cls-4{stroke-linecap:round;}.cls-3{stroke-width:12px;}.cls-4,.cls-5,.cls-7{stroke:#231f20;}.cls-4,.cls-5{stroke-width:8px;}.cls-10,.cls-6{fill:#231f20;}.cls-8,.cls-9{opacity:0.23;}.cls-8{fill:url(#Aluminum);}.cls-9{fill:url(#Aluminum-2);}.cls-10{font-size:250.01px;font-family:BerlinSansFB-Bold, Berlin Sans FB;font-weight:700;}</style><linearGradient id="Aluminum" x1="12.35" y1="146.5" x2="125.77" y2="146.5" gradientUnits="userSpaceOnUse"><stop offset="0.01" stop-color="#bbbcbe"/><stop offset="0.29" stop-color="#989ca0"/><stop offset="0.65" stop-color="#bfbec2"/><stop offset="0.87" stop-color="#9ea0a4"/><stop offset="1" stop-color="#a7a9ac"/><stop offset="1" stop-color="#c3c6ca"/></linearGradient><linearGradient id="Aluminum-2" x1="159.35" y1="146.5" x2="272.77" y2="146.5" xlink:href="#Aluminum"/></defs><title>Asset 2_bw_TEXTHORIZONTAL</title><g id="Layer_2" data-name="Layer 2"><g id="Layer_1-2" data-name="Layer 1"><polygon class="cls-1" points="8.5 8.67 52.24 20.82 76.81 47.34 137.05 29.71 187.08 37.68 208.5 47.34 242.65 20.82 270.44 8.67 276.81 50.61 276.81 108.39 275.97 141.09 259.81 204.67 226.24 250.87 187.08 274.49 141.75 282.58 99.12 274.95 49.05 241.36 23.43 198.94 8.5 151.5 8.5 76.51 8.5 25.34 8.5 8.67"/><circle class="cls-2" cx="142.48" cy="156.08" r="126.5"/><path class="cls-3" d="M79.5,214.67s52.33,32.34,125.33,0"/><path d="M99.93,221.58,116.08,227l-10.77,27.45S96.43,237.19,99.93,221.58Z"/><path d="M186.26,221.58,170.12,227l10.76,27.45S189.76,237.19,186.26,221.58Z"/><path class="cls-2" d="M76.81,47.34C50.78,3.67,8.5,8.67,8.5,8.67V122.89c0,47.21,17,81.78,17,81.78"/><path class="cls-2" d="M259.81,204.67s17-34.57,17-81.78V8.67s-42.29-5-68.31,38.67"/><line class="cls-4" x1="68.9" y1="75.45" x2="215.9" y2="75.45"/><path class="cls-5" d="M116.08,128.78s24.83-26.5,51.33,0"/><circle class="cls-1" cx="68.9" cy="133.23" r="56.71"/><path class="cls-6" d="M125.61,133.23a56.94,56.94,0,0,0-4.37-21.68,56,56,0,1,0,0,43.36A57,57,0,0,0,125.61,133.23Zm0,0A57.45,57.45,0,0,1,15.17,155.48,57.5,57.5,0,0,1,27.89,92.21a57.48,57.48,0,0,1,97.72,41Z"/><circle class="cls-7" cx="68.9" cy="133.23" r="54.55"/><path class="cls-8" d="M125.77,132.23c0-15.34-28.85,37.91-38.75,27.7-5.93-6.13,15.18-29,7-32-6-2.18-27.22,25.5-34,25.5-11.47,0-14.33-34-20-25-16,25.5-16.16-31.69-20.64-23.58a56.72,56.72,0,1,0,106.39,27.38Z"/><circle class="cls-1" cx="215.9" cy="133.23" r="56.71"/><path class="cls-6" d="M272.61,133.23a56.94,56.94,0,0,0-4.37-21.68,56,56,0,1,0,0,43.36A57,57,0,0,0,272.61,133.23Zm0,0a57.45,57.45,0,0,1-110.44,22.25,57.5,57.5,0,0,1,12.72-63.27,57.48,57.48,0,0,1,97.72,41Z"/><circle class="cls-7" cx="215.9" cy="133.23" r="54.55"/><path class="cls-9" d="M272.77,132.23c0-15.34-28.85,37.91-38.75,27.7-5.93-6.13,10.06-35.15,5.06-26.7-3.27,5.51-32.89,28.88-39.67,28.88-11.47,0-6.72-42.72-12.39-33.68-16,25.5-16.16-31.69-20.64-23.58a56.72,56.72,0,1,0,106.39,27.38Z"/><path d="M115.07,182.69h53.35c-1.33,1.38-2.09,2.58-3.17,3.23q-10.38,6.26-20.92,12.26a4.52,4.52,0,0,1-3.27.64C131.6,195.3,122.79,190.68,115.07,182.69Z"/><text class="cls-10" transform="translate(325.44 229.04)">IAKU</text></g></g></svg>