<svg xmlns="http://www.w3.org/2000/svg" width="170.06" height="130.16" viewBox="0 0 170.06 130.16"><defs><style>.cls-1{fill:#bcbec0;}.cls-2{fill:#a7a9ac;}.cls-3{fill:#d1d3d4;}.cls-4{fill:#231f20;}</style></defs><title>Asset 3</title><g id="Layer_2" data-name="Layer 2"><g id="Layer_3" data-name="Layer 3"><path class="cls-1" d="M1,88.16C2.18,90,3.85,90.85,5.6,92.08c1.28.9,3.28,1.46,4.67.42.4-.3,0-1-.39-.67-1.58,1.17-3.32-.11-4.59-1-1.44-1-2.62-1.52-3.59-3.08-.26-.43-.94,0-.67.39Z"/><path class="cls-1" d="M9.7,92.27c.26.92.47,1.94,1.61,2s2.11-1,2.85-1.59l-.58-.34c-.1.9-1.13,1-1.17,1.75,0,.4.24.57.57.67a2.81,2.81,0,0,0,2.08-.62c.28-.2.55-.44.82-.65A5.86,5.86,0,0,1,17,92.68a1.88,1.88,0,0,0-.53.76A1.07,1.07,0,0,0,17.81,95c1.38-.34,1.61-2.26,2.3-3.26h-.67c.47.93-.47,1.76-.74,2.53a.41.41,0,0,0,.28.48c1.16.37,2.47-.59,3.18-1.42a5.41,5.41,0,0,0,.84-1.2c.23-.76,0-.32-.22,0s-.49,1.23-.81,1.74c-.2.32-.27.29-.38.66A.39.39,0,0,0,22,95a3.61,3.61,0,0,0,2.52-1.22,8.06,8.06,0,0,0,1.19-1.29c.3-.43.45-1.24.84-1.58H26c1.53,1.33-.64,2-.36,3.09.11.41.5.45.85.45a3.69,3.69,0,0,0,2.08-1c.34-.29.52-.73.83-1,.08-.16.16-.33.23-.5A1.22,1.22,0,0,1,30,93.56c-.11.49.64.7.75.21.19-.84.28-1.94-.53-2.5s-.95-.17-1.35.3-.38.86-.78,1.23c-.2.19-1.07.91-1.44.78-.19-.06-.16.18-.18.11s.48-.65.54-.8a2.5,2.5,0,0,0-.53-2.55.39.39,0,0,0-.55,0c-.52.46-.65,1.35-1.1,1.91-.62.78-1.82,2.06-2.9,2l.38.49c.16-.54.72-1,.94-1.59a4.53,4.53,0,0,0,.4-1.94.4.4,0,0,0-.28-.37l-.11,0a.41.41,0,0,0-.37.1c-.91,1-1.93,3.7-3.74,3.13l.27.48c.22-.63.68-.75.77-1.51a3.06,3.06,0,0,0-.11-1.62.39.39,0,0,0-.67,0c-.41.59-.52,1.46-1,2-.05.39-.27.5-.67.35-.53.16-.65,0-.35-.36,0-.35.18-.64.18-1a.41.41,0,0,0-.29-.38c-.87-.31-2,1.15-2.62,1.55a11.11,11.11,0,0,1-1.25.57c0-.05.44-.37.49-.44a2.07,2.07,0,0,0,.45-1.25.38.38,0,0,0-.58-.33,9.22,9.22,0,0,1-1.64,1.1,3.84,3.84,0,0,1-1.3.1,3.77,3.77,0,0,1-.38-1.16.39.39,0,0,0-.75.21Z"/><path class="cls-1" d="M30.13,92.06c.31,1.35.46,3.45-1,4.2a8.66,8.66,0,0,1-4.45.59c-2.8-.23-5.61,0-8.42-.29a17.79,17.79,0,0,1-3.9-.88c-.58-.22-1.24-.24-1.8-.48s-1.17-.63-1.77-.9a11.93,11.93,0,0,1-3-1.65c-.53-.45-.9-1-1.38-1.46s-1.12-.8-1.51-1.5c-.24-.44-.91,0-.67.39a4.87,4.87,0,0,0,1.18,1.3c.56.51,1,1.12,1.52,1.61a16,16,0,0,0,4,2.21,21.78,21.78,0,0,0,4,1.52,35.5,35.5,0,0,0,4.83.79,38.28,38.28,0,0,0,5.25.11,26.44,26.44,0,0,0,5.26-.27,3,3,0,0,0,2.47-1.64,6.07,6.07,0,0,0,.13-3.86c-.11-.48-.86-.28-.75.21Z"/><path class="cls-1" d="M6.6,93.32c2,.69,3.8,1.83,5.78,2.55s4.07.54,6.11.68a34,34,0,0,0,6.37.22,39.82,39.82,0,0,0,4.91-1c.49-.12.27-.82-.21-.75a71.34,71.34,0,0,1-11.7.28c-3.83-.06-7.64-.65-11-2.72-.42-.27-.81.4-.39.67A20.93,20.93,0,0,0,17.24,96.1a75.91,75.91,0,0,0,12.53-.3l-.21-.75a30.91,30.91,0,0,1-5.21,1,44.22,44.22,0,0,1-5.86-.28c-2.17-.15-4.32,0-6.37-.84-1.8-.73-3.47-1.73-5.31-2.36C6.34,92.4,6.13,93.15,6.6,93.32Z"/><path class="cls-1" d="M4.74,92.18c1.67.59,3.35,1.66,5.16,1.1L9.42,93c.1.36.4.5.63.78s.23.47.45.66a1.64,1.64,0,0,0,2.07-.1l-.65-.17c.45,2.1,3.83-.37,4.73-.43l-.34-.59c-.37.7-1.41.79-1.7,1.57a.38.38,0,0,0,.1.38c1.21,1,3.21.19,4.38-.44l-.53-.53c-.33.54-.66,1.11.08,1.43,1.16.49,2-1,3-1.12l-.44-.57c-.35.49-.81.91-.63,1.55a.4.4,0,0,0,.37.29,5.48,5.48,0,0,0,3.23-1.06,8.73,8.73,0,0,0,1.13-.78c.26-.23.59-1,.85-1.1l-.58-.33c-.06.88-2.41,1.77-1.86,2.74s2.45-.18,3.06-.38l-.38-.65a3.06,3.06,0,0,0-.85,1,.39.39,0,0,0,.23.57c1.93.71,3.78-1.48,4.76-2.83l-.73-.2c0,.64-.7,1.14-1.14,1.54s.18.89.55.55a3.18,3.18,0,0,0,1.37-2.09c0-.42-.52-.48-.72-.2-.77,1-2.36,3-3.88,2.48l.23.57a2.5,2.5,0,0,1,.73-.82c.3-.25,0-.76-.38-.65a2.8,2.8,0,0,0-.51.18,3.29,3.29,0,0,1-1.72.48c.05-.07.94-.52,1.09-.67a2.55,2.55,0,0,0,.92-1.6.39.39,0,0,0-.58-.34c-.29.13-.23.19-.43.41a6.41,6.41,0,0,1-1.36,1.34,7,7,0,0,1-1.68,1c-1.59.48-.78,0-.42-.54.22-.31-.14-.62-.44-.57a2.17,2.17,0,0,0-1,.45c-.15.11-1.59,1.09-1.16.39A.4.4,0,0,0,18.7,94a7,7,0,0,1-2.38.68c-.37.06-1,.33-.58-.07s1-.54,1.24-1.06a.39.39,0,0,0-.33-.58c-.64,0-3.84,1.63-4,1A.4.4,0,0,0,12,93.8c-.5.47-1.69-.44-1.85-1a.38.38,0,0,0-.47-.27C8.11,93,6.41,92,4.94,91.43c-.47-.17-.67.58-.2.75Z"/><path class="cls-1" d="M28.89,92.11a2.39,2.39,0,0,1-1.42,3.08l.47.61A13,13,0,0,0,30.12,94l-.61-.47c-.38.65-.94,1.14-1.31,1.76-.19.31.21.77.53.53a6,6,0,0,1,1.16-.91l-.44-.57a3.94,3.94,0,0,1-.69.93l.65.38c0-.15.43-.39.53-.45l-.53-.54c.19-.31.86-1.41.66-2a.4.4,0,0,0-.57-.24c-.64.3-.9,1-1.57,1.34a12.26,12.26,0,0,1-3,.55c-.43.07-.33.8.1.77a6.82,6.82,0,0,0,3.72-1c.4-.28,0-.95-.39-.67a4.6,4.6,0,0,1-4,.93l.09.71c1-.53,2-.77,2.41-1.95A1.94,1.94,0,0,0,26.3,91a.39.39,0,0,0-.57.43c.42,1.89-3.07,2.95-4.37,3.54-.42.19-.11.8.3.71a5.42,5.42,0,0,1,1.84-.09l-.17-.65c-.68.65-1.92.06-2.7,0l.34.58a17.6,17.6,0,0,0,1.27-1.71.39.39,0,0,0-.53-.53,7.53,7.53,0,0,1-3.55,1.18,16.81,16.81,0,0,0-2.46.06c-.41.08-.32.63,0,.75a5.38,5.38,0,0,0,1.18.3l.11-.76c-.43,0-2.53.2-2.79-.17s-1,0-.67.4c.66.94,2.48.44,3.46.55.43,0,.53-.69.1-.77a5.38,5.38,0,0,1-1.18-.3v.75c1.09-.22,2.23.07,3.34-.15A9,9,0,0,0,22.1,94l-.53-.53a18.91,18.91,0,0,1-1.27,1.71c-.2.25.07.57.33.58,1.09.07,2.26.7,3.25-.24.19-.18.12-.61-.17-.65a6.61,6.61,0,0,0-2.26.09l.3.71c1.81-.82,5.32-1.79,4.73-4.41l-.58.44c.85.52-.15,1.85-.63,2.16s-.83.34-1.23.56a.4.4,0,0,0,.09.72,5.27,5.27,0,0,0,4.64-1l-.39-.67a6.19,6.19,0,0,1-3.33.84l.11.76a14.45,14.45,0,0,0,2.7-.42c.88-.32,1.25-1.17,2-1.54l-.58-.24c.22.69-1.13,1.79-.55,2.6.44.61,1,.06,1.31-.37a.4.4,0,0,0-.53-.54,1.89,1.89,0,0,0-.89.92.39.39,0,0,0,.65.38,4.77,4.77,0,0,0,.81-1.08c.16-.28-.1-.71-.43-.58a5.65,5.65,0,0,0-1.35,1l.53.53c.37-.62.93-1.11,1.31-1.76.21-.37-.32-.82-.61-.47a13.37,13.37,0,0,1-2.18,1.8c-.37.29.1.79.47.61a3,3,0,0,0,1.78-4,.39.39,0,0,0-.75.21Z"/><path class="cls-1" d="M8.21,94.82c1.8.24,3.55.81,5.36.94,2.2.16,4.28.56,6.44.93a18.46,18.46,0,0,0,9.5-.77l-.3-.71A6.36,6.36,0,0,1,27,96c-.49,0-.5.82,0,.78a7.31,7.31,0,0,0,2.57-.87c.4-.18.11-.87-.3-.71a18.09,18.09,0,0,1-10.18.5,32.38,32.38,0,0,0-4.8-.65c-2-.12-3.92-.68-5.9-1-.49-.07-.7.68-.21.75Z"/><path class="cls-1" d="M30.44,93.48a6.56,6.56,0,0,0,1.08-.57c.41-.27,0-1-.39-.67a6.56,6.56,0,0,1-1.08.57.39.39,0,1,0,.39.67Z"/><path class="cls-1" d="M36.33,101.25a6.26,6.26,0,0,1-1.27.85.78.78,0,0,0,.21,1.53,8.28,8.28,0,0,0,2.2-.4c.94-.32.54-1.82-.41-1.5a6.83,6.83,0,0,1-1.79.34l.2,1.53a6.59,6.59,0,0,0,1.64-1c.84-.54.06-1.89-.78-1.34Z"/><path class="cls-1" d="M12.15,75.65a5,5,0,0,0,4.08-.81l-1.14-.46c-.05-.14-.79.94-.8,1.07A1.17,1.17,0,0,0,15,76.57c1.53.79,3.63-.62,5.06-1l-.76-1.3c-.66.67-2.68,2.12-1.43,3.11,1.55,1.21,4.05-1.07,5.36-1.63l-1.17-.67c0,.89-1.93,1.28-2.07,2.23a.78.78,0,0,0,.75,1,7.35,7.35,0,0,0,3.45-1,.78.78,0,0,0-.79-1.34,5.62,5.62,0,0,1-2.66.77l.75,1s1.26-1.08,1.47-1.33a2,2,0,0,0,.65-1.31.79.79,0,0,0-1.17-.68,19.68,19.68,0,0,0-1.8,1l-.47.28a2.3,2.3,0,0,1-1.21.4c-.24.79-.21,1,.07.8a1.31,1.31,0,0,0,.39-.42c.33-.37.63-.74,1-1.09a.78.78,0,0,0-.75-1.3c-.51.14-3.58,1.68-4,1.12V76c.33-.68,1.17-1.1.87-2a.8.8,0,0,0-1.15-.46,3.43,3.43,0,0,1-2.88.65c-1-.17-1.4,1.33-.41,1.5Z"/><path class="cls-1" d="M24.82,76.12l.05,0a.78.78,0,1,0,1.1-1.1l0,0a.78.78,0,0,0-1.1,0,.79.79,0,0,0,0,1.1Z"/><path class="cls-1" d="M23.09,78.22c.66,0,1.67.23,2.25-.14.24-.16.42-.4.65-.57s.3-.19.45-.28.5-.13.18-.2a.8.8,0,0,0,1-.54,1.42,1.42,0,0,0,.08-.54H26.1A2.59,2.59,0,0,1,25.91,77l.54-.55a6.5,6.5,0,0,0-1.44.62c-.62.32-1.26.45-1.69,1a.78.78,0,0,0,.28,1.06l0,0c.84.56,1.62-.79.79-1.34l0,0,.28,1.07a2,2,0,0,1,.5-.17l.64-.31c.22-.12.44-.25.68-.36s-.18,0,.17-.06c.87-.27,1.06-1.19,1-2s-1.59-1-1.56,0l0,.13,1-.55a2.77,2.77,0,0,0-1.92.7,3.25,3.25,0,0,0-.4.31c-.12.12-.32.22-.06.16a7.55,7.55,0,0,1-1.57,0,.78.78,0,0,0,0,1.56Z"/><path class="cls-1" d="M26,78.81a7.73,7.73,0,0,0,1.38-.69l-.79-1.34a19.63,19.63,0,0,1-2.28,1.57c-.21.11-.43.17-.65.3a1.18,1.18,0,0,0-.22.27l-.08.19c.58-.32.65-.44.21-.35a9.11,9.11,0,0,0-2-.14,16.69,16.69,0,0,1-2.1-.45A19,19,0,0,1,14.88,76c-.86-.53-1.64.82-.79,1.34a18.32,18.32,0,0,0,9.21,3,2.82,2.82,0,0,0,1.16-.21c.17-.07.22-.25.32-.38s-.71.24-.15.18A4.13,4.13,0,0,0,26,79.16a16,16,0,0,0,1.41-1c.77-.59.05-1.92-.79-1.34a6,6,0,0,1-1,.53c-.91.38-.51,1.89.41,1.5Z"/><path class="cls-1" d="M15.34,77.44a35.78,35.78,0,0,0,4,1.6,11.39,11.39,0,0,0,2,.43,21.69,21.69,0,0,1,2.42,0c1,.23,1.38-1.27.41-1.5-1.29-.3-2.57,0-3.89-.3a28.41,28.41,0,0,1-4.17-1.59c-.91-.39-1.7,1-.78,1.35Z"/><path class="cls-1" d="M51.71,88.35c3.37-1.2,6.58-2.8,10-3.88l-.59-1.42a39.34,39.34,0,0,1-4.46,2c-1.59.68-3,1.71-4.51,2.48-.77.39-.22,1.76.6,1.43,3.19-1.31,6.31-2.94,9.4-4.46l-.94-1.22a10.43,10.43,0,0,1-1.44.66,9.15,9.15,0,0,1-2,1.13c-.82.22-.69,1.64.21,1.52a17.32,17.32,0,0,1,3.74-.19L61.2,85a30.37,30.37,0,0,1-2.87,2.12.79.79,0,0,0,.35,1.3c1.28.36,3.22-.71,4.24-1.4a.79.79,0,0,0-.39-1.45,2.16,2.16,0,0,0-1.09.19l.75,1.3c.84-.74,1.58-1.53,2.46-2.22a2.82,2.82,0,0,0,1.23-1.65.79.79,0,0,0-.54-1,15,15,0,0,0-3.41-.1c-1,0-1,1.61,0,1.55.26,0,.61.08.89.08a9.92,9.92,0,0,1,2.11,0l-.55-1c-.15.69-1,1-1.53,1.47S61.71,85.44,61.09,86a.79.79,0,0,0,.76,1.3,1.32,1.32,0,0,1,.68-.14l-.4-1.45c-.5.34-2.37,1.44-3,1.25l.34,1.3a28.72,28.72,0,0,0,2.87-2.12.79.79,0,0,0-.55-1.33A16.71,16.71,0,0,0,58,85l.2,1.53a8.73,8.73,0,0,0,2.14-1.17,15,15,0,0,0,1.95-1c.71-.6-.2-1.59-.95-1.22-3,1.46-6,3-9,4.3l.6,1.42c1.59-.8,3-1.86,4.65-2.55a31.8,31.8,0,0,0,4.31-1.89.78.78,0,0,0-.6-1.42c-3.41,1.08-6.62,2.68-10,3.88-.94.33-.53,1.84.41,1.5Z"/><path class="cls-1" d="M56.5,85.38a3,3,0,0,0,2.16-1.09c.28-.26,2.19-1.94,2.15-2.25s-.36-.27-.49,0a1,1,0,0,0,0,.54,1.19,1.19,0,0,0,.69.82c1.23.58,2.79-.61,3.9-1,.95-.32.54-1.82-.41-1.5-.72.24-1.39.69-2.12.9s-.39.18-.52-.45a1.1,1.1,0,0,0-1.38-.94c-.71.18-1.28,1-1.74,1.47s-1.45,2-2.26,1.9c-1-.09-1,1.47,0,1.56Z"/><path class="cls-1" d="M50.07,87.05c-.29-.16.06-.31-.1-.12a1.34,1.34,0,0,0-.12.3c-.12.22-.26.44-.38.67-.31.62.39,1.57,1.07,1.06a8.92,8.92,0,0,0,1.94-2.88.78.78,0,0,0-1.34-.78c-.25.4-.45.83-.67,1.25a3.26,3.26,0,0,1-.72,1.07l1.07,1.06c.46-.93,1.32-2.25,0-3a.78.78,0,0,0-.79,1.34Z"/><path class="cls-1" d="M56.17,85.58H50.53a.78.78,0,0,0,0,1.55h5.64a.78.78,0,0,0,0-1.55Z"/><path class="cls-1" d="M47,68.83a18.32,18.32,0,0,1,.67,3.59,9.67,9.67,0,0,1-.89,3.44,9.39,9.39,0,0,1-2,3.19c-.38.43-.75.75-.75,1.36a.77.77,0,0,0,.39.67c1.38.76,2.93-.93,3.8-1.79,1.42-1.4,2.85-2.6,3.51-4.55.32-.95-1.18-1.36-1.5-.41a7.71,7.71,0,0,1-2.23,3c-.41.39-2.4,2.58-2.8,2.36l.39.67c0-.18,1-.94,1.11-1.13a8.16,8.16,0,0,0,.83-1.35A20.7,20.7,0,0,0,48.74,75c.78-2.34.29-4.26-.22-6.6-.21-1-1.71-.57-1.5.41Z"/><path class="cls-1" d="M40.46,60.22c1.36-.12,2.72-.19,4.07-.35a14.11,14.11,0,0,1,3.4-.41l-.55-1.33c-1.08.95-2.52.92-3.44,2.14a.79.79,0,0,0,.12.94c1.61,1.8,5.25-.47,7.07.92l-.28-1.06c-.12.28-1.11.27-1.39.43a1.35,1.35,0,0,0-.67.86.79.79,0,0,0,.35.88,3.81,3.81,0,0,0,2.14.28c.69,0,3.63-.46,4,.3V63c-.17.36-.74.66-1,1a5.55,5.55,0,0,0-.87,1.51,30,30,0,0,0-1.27,4.14.78.78,0,0,0,1.5.41,16.18,16.18,0,0,1,1.58-4.73c.49-.73,1.71-1.17,1.44-2.21-.66-2.53-5.21-.4-6.74-1.23l.36.87a4.27,4.27,0,0,0,1.14-.2,1.36,1.36,0,0,0,.77-.72.81.81,0,0,0-.28-1.06,5.25,5.25,0,0,0-3.06-.57c-.66,0-3.21.44-3.7-.11l.12.94c.71-.93,2.3-1,3.2-1.82.57-.5.05-1.25-.55-1.33a14.05,14.05,0,0,0-3.4.41c-1.35.17-2.71.24-4.07.36-1,.08-1,1.64,0,1.55Z"/><path class="cls-1" d="M32,38.57c1.55-.34,3.1-.72,4.61-1.21s3.06-1.12,4.5-.57l-.54-.95c-.32.83-2.06,1-2.54,1.92a.79.79,0,0,0,.46,1.15,9,9,0,0,0,4,0c.87-.13,1.74-.23,2.61-.33a6.61,6.61,0,0,1,2.33-.16l-.57-.75c0,1.35-1,3.05.94,3.55a12.76,12.76,0,0,0,3.09.09h2.07a4.68,4.68,0,0,1,1.94.07L54.7,40.1A9.61,9.61,0,0,0,53.11,42a.78.78,0,0,0,.28,1.06,4.91,4.91,0,0,0,2,.68,9.76,9.76,0,0,1,3.33,1.06,32.39,32.39,0,0,0,5.18,2.48c.95.31,1.36-1.19.41-1.5A38.53,38.53,0,0,1,59,43.21a10.57,10.57,0,0,0-1.94-.8,8.9,8.9,0,0,1-2.91-.69l.28,1.06A8.49,8.49,0,0,1,55.8,41.2.78.78,0,0,0,55.65,40c-1.24-.7-3.14-.28-4.51-.28a8.85,8.85,0,0,1-2.72,0c-.37.08-.49,0-.33-.35a3.4,3.4,0,0,1,.17-.7,4.43,4.43,0,0,0,.11-1,.79.79,0,0,0-.57-.75c-1.23-.42-2.9.12-4.15.27-1.56.18-3.24.72-4.79.27l.47,1.14c.25-.46,1.27-.82,1.7-1.12a2.45,2.45,0,0,0,1-1.18.8.8,0,0,0-.54-1,6.76,6.76,0,0,0-4.28.22c-1.89.55-3.74,1.14-5.67,1.56-1,.22-.56,1.72.42,1.5Z"/><path class="cls-1" d="M33.15,50c1.05,0,2.11-.11,3.16-.22a7.21,7.21,0,0,1,2.59-.25L38.35,49c.06.2-.48.9-.47,1.24a1.4,1.4,0,0,0,.37.87,3.19,3.19,0,0,0,2.22.79c1.21.08,2.63-.39,3.59.43A9.61,9.61,0,0,0,47.88,54a.78.78,0,0,0,.41-1.5,7.79,7.79,0,0,1-3.13-1.29,2.53,2.53,0,0,0-1.53-.87c-.72-.12-3.82.41-4.1-.28,0-.09.45-1,.4-1.24a1.05,1.05,0,0,0-.86-.88,7.43,7.43,0,0,0-2.48.24,33,33,0,0,1-3.44.25c-1,0-1,1.59,0,1.56Z"/><path class="cls-1" d="M66.85,48.68a21.74,21.74,0,0,1,5.5,3c1.72,1.22,3.24,2.66,5,3.88l.18-1.42c-1.92.28-3.77.18-5.64.8-.91.31-2.53.85-2.77,1.94-.35,1.56,1.7,1.69,2.68,2a10.13,10.13,0,0,1,2.52,1.22c1.24.85,1.2,1.67.91,3-.22,1,1.28,1.39,1.5.41.37-1.7.62-3-.85-4.21-1.71-1.42-3.7-1.79-5.69-2.59l.54.55-.1-.52-.2.76c2-1.91,5-1.54,7.51-1.9.74-.1.66-1.08.19-1.42-1.86-1.34-3.55-2.89-5.42-4.23a21.26,21.26,0,0,0-5.39-2.8c-1-.33-1.35,1.17-.42,1.5Z"/><path class="cls-1" d="M81.94,25.82A43.07,43.07,0,0,1,88,27.71c1.61.69,3.25,1.5,4.92,2l.2-1.53c-1.16,0-2.38-.59-3.56-.66-1.93-.11-3.67.48-5.56.63-1,.08-1,1.63,0,1.56,1.88-.15,3.65-.74,5.56-.63,1.2.07,2.37.68,3.56.65a.78.78,0,0,0,.21-1.52c-1.84-.58-3.67-1.51-5.44-2.26a41.17,41.17,0,0,0-5.55-1.66.78.78,0,0,0-.41,1.5Z"/><path class="cls-1" d="M80.54,31.11A8.34,8.34,0,0,1,85.35,33c.6.54,1.2,1.07,1.82,1.57.35.28,1.34.8,1.43,1.26L89,35c-.64.35-2.3.16-3.06.27-1.29.18-2.56.4-3.84.6a.78.78,0,0,0-.54,1c.47,1.76,2,2.67,3.4,3.64A17.4,17.4,0,0,1,90,45.84a.78.78,0,0,0,1.35-.79,18.64,18.64,0,0,0-4-4.71C86,39.2,83.51,38.2,83,36.37l-.54,1c1.5-.23,3-.54,4.51-.68,1-.1,1.89.12,2.75-.35a.79.79,0,0,0,.36-.88c-.14-.68-.61-1-1.13-1.39-.94-.73-1.82-1.51-2.71-2.29A9.39,9.39,0,0,0,81,29.61c-1-.16-1.4,1.34-.41,1.5Z"/><path class="cls-1" d="M114.76,31c2.5.79,4.86,1.81,7.26,2.84,2,.84,3.72,1.48,4.82,3.41v-.78c-.45.89-2.66.33-3.56.3a4.6,4.6,0,0,0-2.7.37.79.79,0,0,0-.15,1.22c.91,1.15,2.1,2,3,3.14a6.11,6.11,0,0,1,1.29,2.47c.06.27.32,1.11.18,1.32-.4.59-1.83-.15-2.2-.32-.89-.42-1.68.89-.78,1.34,1.11.56,2.11,2.24,2.87,3.16.64.77,1.74-.34,1.1-1.1-.88-1.06-1.91-2.75-3.19-3.4L122,46.26c1.09.52,2.46,1.1,3.66.58s.93-1.55.78-2.57c-.47-3.24-3-4.69-4.88-7.06l-.16,1.22c.87-.57,3-.06,3.94,0a4,4,0,0,0,2.24-.25c1.42-1,.34-2.57-.6-3.44-1.35-1.26-3.23-1.86-4.9-2.58-2.28-1-4.51-1.92-6.87-2.67-1-.3-1.37,1.2-.42,1.5Z"/><path class="cls-1" d="M112.4,49.57a17.69,17.69,0,0,1,3,4.11,7.55,7.55,0,0,1,.53,1.16c.2.62.28.54-.34.7-.79.2-1.77-.16-2.62,0a.79.79,0,0,0-.54,1,3.34,3.34,0,0,0,.85,1.29,2.76,2.76,0,0,1,.26,3.31c-.4.9.94,1.7,1.34.78s1-1.56.83-2.64a5.47,5.47,0,0,0-.59-1.61c-.3-.53-1-1-1.19-1.54l-.55,1c1.19-.19,2.62.53,3.72-.22a1.88,1.88,0,0,0,.5-2c-.59-2.37-2.45-4.59-4.08-6.32-.69-.72-1.79.38-1.1,1.1Z"/><path class="cls-1" d="M136.12,54.16a21.88,21.88,0,0,1,.26,3.56c-.77.73-2.31-.35-3.2-.46a.77.77,0,0,0-.78.77,3.39,3.39,0,0,1-1.34,2.73c-.68.73.41,1.83,1.1,1.1C133.35,60.6,134,59.8,134,58l-.77.78c1.43.18,2.88,1.37,4.22.1,1-1,.36-3.48.28-4.75-.06-1-1.61-1-1.56,0Z"/><path class="cls-1" d="M23.14,108.88c.73.26,1.46.49,2.21.69s1.43.25,2.15.4c1,.21,1.39-1.29.41-1.5a31.45,31.45,0,0,1-4.35-1.09c-.95-.33-1.36,1.17-.42,1.5Z"/><path class="cls-1" d="M68.93,105.18a24.43,24.43,0,0,0,3.19-.31.77.77,0,0,0,.55-.54l-.08.12c.89-.44.11-1.79-.79-1.34a1.23,1.23,0,0,0-.63.81l.54-.55a19.94,19.94,0,0,1-2.78.25c-1,0-1,1.59,0,1.56Z"/><path class="cls-1" d="M70.48,106.27c1.46-.08,2.93.16,4.36.08a3.83,3.83,0,0,0,2.42-1.55.78.78,0,0,0-.55-1.32c-1.73-.23-3.26,1-4.95,1.13l.21,1.53c.93-.2,1.85-.43,2.76-.68a.78.78,0,0,0-.41-1.5c-.92.25-1.84.48-2.76.68s-.68,1.61.2,1.52c1.64-.16,3.31-1.34,4.95-1.13l-.55-1.32c-.33.36-.72.9-1.21,1.05a3.79,3.79,0,0,1-1.34-.05,25.14,25.14,0,0,0-3.13,0c-1,.06-1,1.61,0,1.56Z"/><path class="cls-1" d="M140.58,90.06c1.95.52,3.69,1.43,5.59,2l.21-1.53a18.16,18.16,0,0,1-2.95-.12c-.21,0-1.67-.28-1.53.1l-.75,1a19.84,19.84,0,0,1,3.49.57c1.2.19,2.41.35,3.62.51,1,.13,1-1.43,0-1.56-1.42-.18-2.84-.37-4.25-.62a14.7,14.7,0,0,0-2.86-.46.79.79,0,0,0-.75,1c.27.77.91.87,1.66.93a31.1,31.1,0,0,0,4.32.22.78.78,0,0,0,.21-1.52c-1.9-.57-3.65-1.48-5.59-2a.78.78,0,0,0-.42,1.5Z"/><path class="cls-1" d="M156.86,85.55a26.29,26.29,0,0,0,4.41-1.66c.73-.39,1.89-.87,1.78-1.88a.78.78,0,0,0-.57-.75c-1.26-.22-2.44.66-3.56,1.1-.88.35-2.31.65-3,1.37s.2,1.76.94,1.22c1.49-1.06,3.57-1.65,4.73-3.1.45-.55.06-1.56-.75-1.3a23.65,23.65,0,0,0-3,1.22.78.78,0,0,0,.19,1.42c1.07.31,2.25-.37,3.23-.75s.52-1.87-.41-1.5c-.63.25-1.73,1-2.41.75l.19,1.42a20.6,20.6,0,0,1,2.67-1.06l-.76-1.3a5.58,5.58,0,0,1-2.05,1.41,17.77,17.77,0,0,0-2.36,1.45l.94,1.22a7.52,7.52,0,0,1,2.51-1c.64-.26,1.85-1.14,2.53-1L161.5,82a13.3,13.3,0,0,1-2.07,1c-1,.4-2,.7-3,1s-.55,1.8.41,1.5Z"/><path class="cls-1" d="M156,61c0,1.6,0,3.2,0,4.8a3.59,3.59,0,0,0,.4,2.42c1.11,1.4,2.82.2,4.16.71l-.54-.54c.2-.44.11-.54-.26-.29l-.19.08a2.69,2.69,0,0,0-.83.52,3.19,3.19,0,0,0-1.13,1.59,2,2,0,0,0,1.19,2.49c.48.19,1.42.11,1.71.59s-.12,1.47,0,2a2.27,2.27,0,0,0,.89,1.33c.29.24,1.74.77,1.79,1.07l.2-.76c-.2.16-.67.16-.91.27a3.22,3.22,0,0,0-.81.55c-.78.64.33,1.73,1.1,1.1s2-.35,1.92-1.57-1.32-1.15-2.07-1.69c-1-.77-.19-2.21-.8-3.24a1.87,1.87,0,0,0-.9-.74c-.4-.18-1.24-.12-1.56-.39-1.3-1.09,1.71-1.81,2.1-2.48a1,1,0,0,0-.66-1.5c-.94-.28-3,.7-3.26-.58a11.43,11.43,0,0,1,0-2.48V61A.78.78,0,0,0,156,61Z"/><path class="cls-1" d="M162.31,77.67c-1.84-.33-3.83-.6-4.26-2.75-.34-1.68-.17-3.39-.84-5-.38-.89-1.78-.58-1.5.42.46,1.68.94,3.37,1.44,5a.78.78,0,0,0,1.5-.41q-.75-2.52-1.44-5l-1.5.42c.86,2.06.2,4.64,1.42,6.55,1,1.62,3,2,4.76,2.3,1,.18,1.4-1.32.42-1.5Z"/><path class="cls-1" d="M161.3,78.22a41.74,41.74,0,0,1-1.89-5.33c-.17-.86-1.55-.66-1.53.21a16,16,0,0,0,.22,2.48,25.14,25.14,0,0,1,.73,2.53c.1,1,1.65,1,1.56,0a10.09,10.09,0,0,0-.61-2.23,10.38,10.38,0,0,1-.34-2.78l-1.53.2a41.2,41.2,0,0,0,1.89,5.33c.32.94,1.83.54,1.5-.41Z"/><path class="cls-1" d="M159,75.26a37.5,37.5,0,0,0-1.7,5.26.79.79,0,0,0,.75,1,3.85,3.85,0,0,0,2.21-1c.55-.42,1.14-.82,1.67-1.25.37-.3.6-.79,1-1.06l-1.06-1.06c-.5,1.16-2,2.58-1.64,4a.78.78,0,0,0,1.42.18,5.85,5.85,0,0,0,0-4.94c-.47-1-.67-2-1.1-3-.49-1.17-1.66-2-1.89-3.34-.31-1.79,2.25-2.62.66-4.14-1-.94-2.16-2.48-3.39-1-.63.77.47,1.87,1.1,1.1.12-.15,1.08.79,1.14.94,0-.08.24-.25-.15.16a5.3,5.3,0,0,0-.56.6c-.83,1.16-.49,2.36,0,3.58a14.94,14.94,0,0,0,1.19,2,13.27,13.27,0,0,1,1,2.57,17.36,17.36,0,0,1,.93,2,4.92,4.92,0,0,1-.32,2.75l1.43.18c-.18-.63,1.24-2.21,1.48-2.77s-.36-1.6-1.06-1.06-1.26,1.26-2,1.81c-.46.34-1.38,1.33-2.05,1.32l.75,1a37.93,37.93,0,0,1,1.7-5.26c.38-.92-1.13-1.32-1.5-.41Z"/><path class="cls-1" d="M31,101.21c-.63.52-6.47,5.31-3.28,5.92,1.15.22,2.37-.92,3.15-1.61.26-.23,1-.72,1-1,.33-.26.1-.42-.69-.47l-.27.4a4.26,4.26,0,0,0-.39.53c-.55.72-3.55,3.77-1.55,4.42.92.3,2.05-.67,2.75-1.14a28.94,28.94,0,0,0,3.76-2.41c.54-.52,0-1.57-.76-1.3-1.07.37-3.22,2.23-2.66,3.56,1,2.24,5-1.49,5.8-2.24s-.35-1.75-1.1-1.1a3.16,3.16,0,0,0-.46.43.79.79,0,0,0,.15,1.23h0a.82.82,0,0,0,1-.12,3.75,3.75,0,0,0,.44-.45.78.78,0,0,0-1.1-1.1c-.61.52-5.44,4.29-2.73,5,1.66.44,3.78-1.9,5-2.72L38,106.14c-.14.77-1.21,1-1.25,1.9a1.21,1.21,0,0,0,.89,1.21c1.25.39,2.91-.57,4-1.07.91-.41.12-1.75-.78-1.34a15.09,15.09,0,0,0-2.26.84l-.33.07.15.29c.13,0,.37-.33.47-.44a2,2,0,0,0,.6-1c.11-.62-.53-1.29-1.14-.88-1.05.69-2,1.53-3.08,2.15a3.71,3.71,0,0,0-.75.36c.22.52.44.6.67.22a6.4,6.4,0,0,1,.49-.42c.78-.69,1.47-1.47,2.26-2.16l-1.1-1.1a3.75,3.75,0,0,1-.44.45l.94-.13h0l.16,1.22a3.16,3.16,0,0,1,.46-.43l-1.1-1.1c-.46.42-.92.86-1.41,1.24a6.53,6.53,0,0,1-1,.67c-.48.27-1.09.2-1,.73s.55-.33.79-.59a2.74,2.74,0,0,1,.93-.77l-.75-1.3a20.29,20.29,0,0,1-3.08,1.91c-.41.27-.81.57-1.23.83-.09,0-.53.22-.56.31.13.74.26.94.41.61a2.53,2.53,0,0,1,.13-.22,12.35,12.35,0,0,0,1.65-2.21A5,5,0,0,0,33,104a1,1,0,0,0-.78-1.28c-.69-.1-1.24.6-1.66,1a10.84,10.84,0,0,1-.84.82c-.21.18-.42.35-.64.51a4.92,4.92,0,0,1-.56.37l.1.34c.38-.1,1.2-1.35,1.52-1.66.65-.63,1.35-1.2,2-1.78s-.33-1.73-1.1-1.1Z"/><path class="cls-1" d="M28.59,99.81c-1,1.79-2.76,3.1-3.19,5.16a.79.79,0,0,0,.75,1c2.41-.21,3.26-2.81,5.36-3.64.92-.36.52-1.87-.41-1.5a6.84,6.84,0,0,0-2.33,1.53c-.73.69-1.52,2-2.62,2.05l.75,1c.39-1.87,2.15-3.14,3-4.79.47-.88-.87-1.67-1.34-.78Z"/><path class="cls-1" d="M23.48,50.94a5.67,5.67,0,0,0-.34-4,.79.79,0,0,0-.88-.36,3.06,3.06,0,0,0-2,1.24c-.83,1-1.73,2.05-2.54,3.11l1.45.39c.13-1,1.43-4.81-.75-4.58-1.28.13-1.91,2-1.68,3.11a.79.79,0,0,0,1.42.19,4.73,4.73,0,0,0,.73-1.73.8.8,0,0,0-1.15-.88c-1.41.63-2.16,2.13-3.17,3.23-.1.11-.5.72-.65.72s-.73-.77-.81-.86a7.4,7.4,0,0,0-1.55-1.56.79.79,0,0,0-1.15.88A5.23,5.23,0,0,0,13.31,53c.9.43,1.69-.91.79-1.34a3.78,3.78,0,0,1-2.23-2.23l-1.14.88c1.07.7,2.15,3.32,3.83,2.52s2.18-3.27,3.93-4l-1.14-.88a3.67,3.67,0,0,1-.57,1.35l1.42.19c-.07-.33.34-.71.29-1L18.08,48c0,.29-.07.58-.12.86-.13.83-.28,1.65-.38,2.48s1.05.91,1.45.39c.52-.68,1.16-1.28,1.69-2s1-1.51,2-1.67l-.88-.36A4,4,0,0,1,22,50.53a.78.78,0,0,0,1.5.41Z"/><path class="cls-1" d="M18.14,49.38c1.37-.88,3.8-2,3.8-3.88a.79.79,0,0,0-1.17-.67c-.78.4-.75,1.4-.71,2.14,0,.57.14.54-.33.94s-1.17,1-1.75,1.5c-.76.66.35,1.75,1.1,1.1q.74-.66,1.5-1.29c.36-.3.86-.61,1-1.08.09-.26-.1-1.94-.06-2l-1.17-.68c0,1.1-2.27,2.06-3,2.54s-.06,1.89.78,1.34Z"/><path class="cls-1" d="M17.86,49.41c-1.17,2.66-2.8,5.53-1.4,8.41.43.9,1.78.11,1.34-.79-1.09-2.23.51-4.81,1.4-6.84.4-.9-.94-1.7-1.34-.78Z"/><path class="cls-1" d="M46.13,17.52c-1.77,1.58-3.83,3.34-4.58,5.67a.79.79,0,0,0,.36.88,3.87,3.87,0,0,0,2.84.06,33.82,33.82,0,0,0,4.31-1.27c1.5-.59,2.93-1.64,4.54-1.81a9.79,9.79,0,0,0,3.21-.67A.78.78,0,0,0,56.62,19a4.77,4.77,0,0,0-2.54,0,4.2,4.2,0,0,0-1.93,2.41.79.79,0,0,0,.67,1.17c1.51.07,3-.22,4.55-.2a17.37,17.37,0,0,1,4.48.63c3,.8,6.33.63,9.41.58a.78.78,0,0,0,0-1.55,36.69,36.69,0,0,1-9.87-.81c-2.86-.75-5.7-.06-8.57-.21l.67,1.17c.57-1.29,1.23-1.89,2.72-1.65L56,19a10.71,10.71,0,0,1-3.13.54,9.77,9.77,0,0,0-2.77,1.12,20,20,0,0,1-3.63,1.39c-1,.26-2.84,1.06-3.81.65l.36.88c.66-2.05,2.64-3.61,4.18-5,.75-.67-.35-1.77-1.1-1.1Z"/><path class="cls-1" d="M102.37,81.07c3.44,0,6.88.06,10.31,0l-.2-1.53c-3.23.51-6.53,0-9.68,1.07a.78.78,0,0,0,0,1.5c2.14.8,4.72.34,7,.65v-1.5c-1.18.21-4.11.37-4.45,1.89a.78.78,0,0,0,.75,1,18.68,18.68,0,0,0,6-.89.78.78,0,0,0-.42-1.5,17.43,17.43,0,0,1-5.59.84l.75,1c.07-.32,3-.74,3.36-.8.73-.14.76-1.4,0-1.5-2.21-.31-4.86.14-7-.65v1.5c3.13-1,6.46-.57,9.68-1.07.88-.13.66-1.54-.21-1.52-3.43.07-6.87,0-10.31,0a.78.78,0,0,0,0,1.56Z"/><path class="cls-1" d="M100.81,82.47A54.33,54.33,0,0,0,110,81.25c3-.7,5.76-2,8.68-2.74a.78.78,0,0,0-.42-1.5c-1.68.37-3.33,1-5,1.49-1.91.55-3.86,1-5.77,1.51a.78.78,0,0,0,.41,1.5l1.22-.31a.78.78,0,0,0-.41-1.5l-1.22.31.41,1.5c1.91-.56,3.86-1,5.77-1.51,1.67-.48,3.31-1.12,5-1.49l-.42-1.5c-2.73.74-5.34,1.9-8.1,2.6a50.51,50.51,0,0,1-9.33,1.3c-1,.06-1,1.62,0,1.56Z"/><path class="cls-1" d="M112.17,79.36A24.74,24.74,0,0,0,118.6,79c1.72-.3,3.6-.34,5.17-1.17.65-.35.39-1.55-.39-1.45a39,39,0,0,1-4.59.47l-2.39,0c-.39,0-.8,0-1.19,0a2.18,2.18,0,0,1-.72-.12q-.69-.3-.27.12l-.38.67c2.1-1.18,4.66-.82,7-.86a29,29,0,0,0,7.49-.8.79.79,0,0,0,.35-1.3,3.55,3.55,0,0,0-2.74-1,13.6,13.6,0,0,0-3.93,0c-.7.2-.78,1.35,0,1.5a21.08,21.08,0,0,0,5.72,0,25.25,25.25,0,0,0,5.73-1,.79.79,0,0,0,.35-1.3c-.7-.74-2.62-.28-3.48-.09a.78.78,0,0,0,.2,1.53h0V72.75c-.93,0-1.86.1-2.78.23s-.63,1.5.21,1.53c1.9.08,4.08-.84,5.87-1.4.95-.3.55-1.81-.41-1.5C131.78,72.12,129.7,73,128,73l.2,1.52c.79-.11,1.58-.13,2.37-.18a.78.78,0,0,0,0-1.55h0l.21,1.52a8.72,8.72,0,0,1,1-.13c.23,0,.48,0,.7,0s.56.19.26-.13l.34-1.3a24,24,0,0,1-5.32.91,20.1,20.1,0,0,1-5.31.09v1.5a10.14,10.14,0,0,1,2.64,0c.8,0,1.93-.17,2.52.52l.34-1.3a30.26,30.26,0,0,1-8.44.75c-2.2,0-4.43,0-6.41,1.07a.74.74,0,0,0-.38.67c.16,1.67,2.12,1.56,3.43,1.58s2.37,0,3.56,0a33.47,33.47,0,0,0,3.72-.47L123,76.51c-1.41.75-3.25.75-4.81,1a22.43,22.43,0,0,1-6,.27c-1-.09-1,1.47,0,1.56Z"/><path class="cls-2" d="M58.57,108.61a74.32,74.32,0,0,0-1,8.14c-.07,1.42-.55,4.91,1.63,5s3.61-2.1,4.77-3.63a21.86,21.86,0,0,0,3.47-6.73l-1.5-.42c-.25,1.67-2.59,13.07,2,10.63,1.93-1,2.53-3.1,3.4-4.95,1.06-2.27,1.63-5.13,3.23-7,.63-.77-.46-1.87-1.1-1.1-1.48,1.77-1.86,3.74-2.77,5.83-.53,1.22-1.15,2.39-1.68,3.61-.38.86-1.25,2.66-2.57,2.22l.55.55c-.55-1.57-.23-3-.1-4.55s.33-3.2.56-4.78a.78.78,0,0,0-1.5-.42,20.63,20.63,0,0,1-2.73,5.55c-1,1.41-2.54,3.83-4.44,3.62l.68.39c-.81-1.53-.34-4.07-.19-5.74.17-1.92.46-3.83.76-5.74.15-1-1.35-1.4-1.5-.41Z"/><path class="cls-2" d="M78.16,107.65c-2.27,2.34-2.87,5-3.36,8.14a3.35,3.35,0,0,0,.56,2.93,3.48,3.48,0,0,0,3.54.47,5.78,5.78,0,0,0,3.4-5.85,2.79,2.79,0,0,0-1.4-2.68c-1.17-.55-2.44.07-3.51.6-.9.44-.11,1.78.78,1.34a5.68,5.68,0,0,1,1.36-.54,1.64,1.64,0,0,1,1.21,1.85,5.57,5.57,0,0,1-.43,1.9c-.62,1.63-3.92,3.48-4,.53a14.29,14.29,0,0,1,.77-4.08,8.61,8.61,0,0,1,2.2-3.51c.7-.72-.4-1.83-1.1-1.1Z"/><path class="cls-2" d="M86.47,105.19c-1.62,4.39-2,9.12-2.91,13.69-.18,1,1.32,1.39,1.5.41.87-4.57,1.29-9.3,2.91-13.69.34-.94-1.16-1.34-1.5-.41Z"/><path class="cls-2" d="M90.82,103.94a81.62,81.62,0,0,0-3.14,14.21c-.1,1,1.46,1,1.56,0a78.72,78.72,0,0,1,3.08-13.79.78.78,0,0,0-1.5-.42Z"/><path class="cls-2" d="M95.07,104.77a5.87,5.87,0,0,0,0,4.36,3,3,0,0,0,3.26,1.64c2.28-.34,4.86-2.59,4.64-5.06-.09-1-1.65-1-1.56,0,.14,1.53-1.31,2.84-2.63,3.33-1,.38-1.9.28-2.39-.78a4.47,4.47,0,0,1,.22-3.07c.3-1-1.2-1.37-1.5-.42Z"/><path class="cls-2" d="M98.08,109.34c-.73,3.67-2.38,7.27-2.72,11-.09,1,1.46,1,1.55,0A29.33,29.33,0,0,1,98.3,115q.75-2.58,1.28-5.22c.19-1-1.31-1.4-1.5-.41Z"/><path class="cls-2" d="M114.64,98.45c-.35,6.7-1.34,13.34-2,20-.09,1,1.47,1,1.56,0,.62-6.67,1.61-13.31,2-20,0-1-1.5-1-1.56,0Z"/><path class="cls-2" d="M112.46,105.58a7.59,7.59,0,0,1,2.23-2.79,21.28,21.28,0,0,1,2.61-1.32,18.78,18.78,0,0,1,3-1.12c.82-.23,2.52-1.12,3.08-.41v-1.1c-1.62,1.81-3.31,3.57-5.07,5.25-1,1-2.31,2.11-2.13,3.67a2,2,0,0,0,.77,1.44,23.22,23.22,0,0,1,2.9,2.19,25.54,25.54,0,0,1,3.94,5.81c.47.88,1.81.1,1.35-.79-1.58-3-3.52-6.15-6.42-8-.27-.17-.83-.38-1-.68-.21-.47.39-1.24.65-1.54.5-.58,1.11-1.09,1.66-1.63,1.51-1.5,3-3,4.41-4.61a.81.81,0,0,0,0-1.1,2.17,2.17,0,0,0-2.24-.87,20.32,20.32,0,0,0-2.08.81c-.81.26-1.61.49-2.4.81a24.14,24.14,0,0,0-3.83,1.85,8.54,8.54,0,0,0-2.79,3.36.78.78,0,0,0,1.34.78Z"/><path class="cls-2" d="M126.88,98.86a40.35,40.35,0,0,1-.38,8.65,46.48,46.48,0,0,0-.86,8.15.78.78,0,0,0,1.55,0,60.75,60.75,0,0,1,1-8.91,42.42,42.42,0,0,0,.25-7.89c0-1-1.6-1-1.56,0Z"/><path class="cls-2" d="M127.16,115.77a21.86,21.86,0,0,1,1.76-5.71c.6-1.28,1.52-3.71,2.88-4.31l-1.06-.28c.54,1.08.39,2.59.51,3.78.1,1,.21,2,.34,3.07a10.89,10.89,0,0,0,1.2,4.67c.54.84,1.89.06,1.35-.79-1.08-1.69-1-4.16-1.25-6.11-.19-1.77,0-3.79-.81-5.41a.8.8,0,0,0-1.06-.28c-1.61.72-2.46,2.9-3.2,4.37a23.21,23.21,0,0,0-2.16,6.58c-.16,1,1.34,1.4,1.5.42Z"/><path class="cls-2" d="M136.53,107v7.36a.78.78,0,0,0,1.55,0V107a.78.78,0,0,0-1.55,0Z"/><path class="cls-2" d="M142.88,107c-.6,2.81-1.24,6-.8,8.87.11.69,1.11.72,1.43.19,1.36-2.3,1.14-5.53,3.29-7.29h-1.1c1.9,1.75.25,5.39,3,6.55.92.39,1.32-1.12.41-1.5s-.93-3.19-1.1-4a4,4,0,0,0-1.22-2.16.81.81,0,0,0-1.1,0c-2.37,1.94-2.06,5.13-3.54,7.6l1.42.19c-.39-2.56.27-5.55.8-8,.21-1-1.29-1.4-1.5-.42Z"/><path class="cls-2" d="M156.15,104.12c-1.63,1.85-3.18,3.86-2.9,6.47a4.07,4.07,0,0,0,4.08,3.86c2,0,3.86-2.51,4.44-4.24,1-2.85-1.67-4-4-4.24-1-.09-1,1.47,0,1.55s2.5.26,2.67,1.52a3.2,3.2,0,0,1-.79,1.9c-.82,1.19-2.05,2.47-3.57,1.64s-1.46-2.69-1-4a9.86,9.86,0,0,1,2.25-3.33c.65-.75-.44-1.85-1.1-1.1Z"/><path class="cls-3" d="M118.62,119.25c-.25,3.45-.57,6.9-.86,10.35-.06.75,1.1.74,1.17,0,.29-3.45.61-6.9.85-10.35.06-.75-1.11-.74-1.16,0Z"/><path class="cls-3" d="M117.88,122.38l2.11-.86c.57-.23,1.56-.88,2.15-.81.44.06,0-.12.08,0s-.7.93-.86,1.09c-.51.52-1.13.92-1.63,1.45-1.57,1.67.39,4.56,1.62,5.89.51.56,1.34-.27.83-.82a8.05,8.05,0,0,1-1.67-2.74c-.36-1.11,0-1.5.82-2.19s2.28-1.88,2.23-3.08c-.08-2.25-5.13.58-6,.94-.69.28-.39,1.41.31,1.12Z"/><path class="cls-3" d="M123.17,127.75A3.42,3.42,0,0,0,126,125c.21-1.37-1.49-1.63-2.3-.82a2.31,2.31,0,0,0,0,2.85,2.43,2.43,0,0,0,3.33.64c.66-.36.07-1.37-.59-1a1.26,1.26,0,0,1-1.68-.16,1.58,1.58,0,0,1-.41-1.19c0-.12.16-.51.36-.45s-.09.57-.18.71a2.66,2.66,0,0,1-1.68,1,.59.59,0,0,0,.31,1.13Z"/><path class="cls-3" d="M129.91,124.13c-.77.64-1.84,1.49-1.42,2.64a1.93,1.93,0,0,0,1.28,1.16,3.18,3.18,0,0,0,1.87-.26c.7-.25.4-1.38-.31-1.12a2.92,2.92,0,0,1-1.12.27c-.29,0-.65-.24-.65-.56,0-.52.83-1,1.17-1.3.58-.49-.25-1.31-.82-.83Z"/><path class="cls-3" d="M133.94,124.17c-.55.77-1,2-.2,2.72a2.31,2.31,0,0,0,2.6.09,1.51,1.51,0,0,0,.66-2.26,2.61,2.61,0,0,0-2.79-.58c-.7.25-.4,1.38.31,1.12a1.75,1.75,0,0,1,1.31,0c.57.27.13.63-.27.78s-.88.26-1.08-.07.29-1,.47-1.22c.43-.61-.58-1.2-1-.59Z"/><path class="cls-3" d="M138.86,122.13c.21,1.59.25,3.15.37,4.75.05.74,1.22.75,1.16,0-.12-1.7-.18-3.37-.41-5.06-.1-.74-1.22-.42-1.12.31Z"/><path class="cls-3" d="M140.29,127c.25-.7.45-1.41.69-2.11s.65-.79,1.32-.73.74-1.1,0-1.16a2,2,0,0,0-2,.77,11.39,11.39,0,0,0-1.09,2.92c-.25.71.88,1,1.12.31Z"/><path class="cls-3" d="M147.26,124.31l0,.07.56-.74a4.44,4.44,0,0,0-1.41-.12,2.07,2.07,0,0,0-1.11.65,2.51,2.51,0,0,0-.61,2.46.62.62,0,0,0,.5.29,3.83,3.83,0,0,0,2.19-.73,2.3,2.3,0,0,0,1-2,.58.58,0,0,0-1.16,0,1.21,1.21,0,0,1-.7,1.2,2.62,2.62,0,0,1-1.33.4l.51.29c-.06-.11.18-.58.24-.7a1.28,1.28,0,0,1,.41-.56c.43-.28,1,0,1.47,0a.59.59,0,0,0,.56-.74l0-.07A.58.58,0,0,0,147.26,124.31Z"/><path class="cls-3" d="M147.47,118.24c.07,2.8-.66,7.38,2.16,9.14.64.4,1.22-.61.58-1-2.23-1.39-1.51-5.92-1.57-8.13a.59.59,0,0,0-1.17,0Z"/><path class="cls-3" d="M154.74,121.78c-.92,0-3.9.09-3.44,1.74.21.72.92,1,1.53,1.24.35.15.69.31,1,.45s.73.21.91.52l.21-.8a9.1,9.1,0,0,1-1.27.45c-.71.24-.4,1.37.31,1.13a12,12,0,0,0,1.55-.57.59.59,0,0,0,.21-.8,2.45,2.45,0,0,0-1.38-1c-.63-.26-1.79-.52-2.08-1.18l.06.45c.09-.27.74-.41,1-.45a7,7,0,0,1,1.37,0,.59.59,0,0,0,0-1.17Z"/><path class="cls-2" d="M136.82,101.18c-.1-.06,0,.1,0,.17a3.25,3.25,0,0,1,0,.54c0,.37-.07.74-.07,1.11a.78.78,0,0,0,1.55,0c0-1.1.38-2.42-.69-3.16-.83-.57-1.61.78-.79,1.34Z"/></g><g id="Layer_2-2" data-name="Layer 2"><path class="cls-4" d="M9.76,73.2c1.91,0,3.66.58,5.54.62a32.18,32.18,0,0,0,4.91-.07c1.47-.19,2.47-1.06,3.69-1.83.88-.56,2.46-1.14,3-2.12.34-.67-.66-1.26-1-.59-.24.46-1.23.88-1.65,1.14-.58.36-1.17.71-1.73,1.09a6.66,6.66,0,0,1-4.25,1.21,25.08,25.08,0,0,1-4.42-.18,18.12,18.12,0,0,0-4-.44c-.74,0-.75,1.19,0,1.17Z"/><path class="cls-4" d="M9.57,74.16A15.23,15.23,0,0,1,13,76.77a24.31,24.31,0,0,0,3.63,2.49,16.62,16.62,0,0,0,8,2c.75,0,.75-1.14,0-1.17a16.24,16.24,0,0,1-8.33-2.42c-2.2-1.36-3.77-3.42-6.1-4.55-.67-.33-1.26.68-.59,1Z"/><path class="cls-4" d="M25.44,69.28c1.57,2.2,3.29,4.13,2.07,6.94-.87,2-1.9,4.77-4,5.74-.68.31-.09,1.32.59,1,2.53-1.15,3.9-4.6,4.83-7,1.07-2.76-.92-5.15-2.44-7.28-.44-.6-1.45,0-1,.59Z"/><path class="cls-4" d="M19.39,73.22a7.84,7.84,0,0,0,3.79-4.65c.51-1.92.56-3.68-1.05-5a25.68,25.68,0,0,0-2.7-2,13.37,13.37,0,0,1-3.05-2c-1.09-1.12-1.86-2.94-1-4.42.51-.86,1.3-1.43,1.58-2.42a.58.58,0,0,0-1.12-.31c-.29,1-1.27,1.62-1.68,2.57a4.12,4.12,0,0,0-.25,2.2,6,6,0,0,0,2.43,3.9,23,23,0,0,0,2.5,1.54c1.05.63,3.39,2,3.51,3.27a7.2,7.2,0,0,1-.8,3.47,6.73,6.73,0,0,1-2.75,2.82.58.58,0,0,0,.59,1Z"/><path class="cls-4" d="M16.3,54.37a1.88,1.88,0,0,0,0-3.75,1.88,1.88,0,0,0,0,3.75Z"/><path class="cls-4" d="M11.73,48A7.85,7.85,0,0,1,7.3,44.61C7,44,6,44.43,6.23,45.06A13.35,13.35,0,0,0,7.9,47.88c.74,1,1.23,2.19,2,3.2a15.16,15.16,0,0,0,2.83,2.59,5.17,5.17,0,0,0,3,1.17c.74.07.74-1.1,0-1.16-2-.18-4.34-2.37-5.33-4.06s-2.29-3.14-3-4.87l-1.07.44a8.73,8.73,0,0,0,5.13,3.92c.73.16,1-1,.31-1.12Z"/><path class="cls-4" d="M21.34,31.19c-.63-2-.88-4.53.15-6.35l-.8.21c.58.4.9,1.44,1.73,1.47.59,0,.79-.44.79-.94,0-1-.56-1.94-.55-3a15.69,15.69,0,0,1,1.07-5.41H22.61c.15.8-.12,1.53.63,2.06A.57.57,0,0,0,24,19a11.55,11.55,0,0,0,.54-2.27,21,21,0,0,1,1.25-2.93c.25-.57.83-2.44,1.49-2.74s1.38.64,1.76,1a.59.59,0,0,0,1-.41A12.94,12.94,0,0,1,30.58,9c.57-1.45,1.56-1,2.66-1.55A2.28,2.28,0,0,0,34.82,4.8c0-.75-1.21-.76-1.17,0,.15,2.26-2.5,1.33-3.6,2.61-.82.95-1.07,3.15-1.15,4.32l1-.41c-.53-.57-1.25-1.56-2-1.75s-1.28.52-1.71,1.13a30.08,30.08,0,0,0-1.89,3.71A10.18,10.18,0,0,0,23.58,16,19.62,19.62,0,0,1,23,18.45l.8-.21c-.13-.08,0-1.1-.1-1.36-.12-.6-.95-.49-1.12,0a15.08,15.08,0,0,0-1.1,6.53,3.79,3.79,0,0,0,.43,1.77c.44.54.18-.17,0-.46a2,2,0,0,0-.67-.68.6.6,0,0,0-.8.21c-1.22,2.15-1,4.92-.26,7.25.23.71,1.35.41,1.12-.31Z"/><path class="cls-4" d="M34,6.2c-.15.62-.33,1.24-.44,1.87a1.93,1.93,0,0,0,.08,1.38c.4.63,1.41.05,1-.59-.14-.23.11-.86.17-1.11.09-.42.2-.83.3-1.24.17-.73-1-1-1.12-.31Z"/><path class="cls-4" d="M38.9,4.9a10.85,10.85,0,0,0,2.28-2.6L40.1,2c0,1.13-.64,6.08,2.07,5,.51-.2.78-.7,1.13-1.09a12.76,12.76,0,0,1,1.91-1.6c1.5-1.12,2.63-2.59,4.47-3.17L48.94.59c0,.42-.42.82-.56,1.22a4.18,4.18,0,0,0-.14,1.76A2.2,2.2,0,0,0,49,5.35c.8.46,1.35-.14,2-.6a8.28,8.28,0,0,1,5.24-1.64l-.56-.74c-.3,1-1.49,2.9.2,3.39.75.22,1.8-.31,2.53-.42A12.45,12.45,0,0,0,61.57,5l-.72-.72a2.3,2.3,0,0,0,.62,2.48c1.2.81,2.81-.34,3.93-.74.7-.25.4-1.38-.31-1.12-.87.31-3.48,1.81-3.11-.31.06-.38-.27-.9-.72-.72-1.07.44-2.31.23-3.44.44-.36.07-1.49.6-1.67.06a9.84,9.84,0,0,1,.64-1.65.59.59,0,0,0-.56-.74,9.66,9.66,0,0,0-5.47,1.52c.08,0-1.09.75-1,.75-.47,0-.41-.8-.42-1.11,0-1,.77-1.58.74-2.51A.6.6,0,0,0,49.37,0c-2.23.7-3.71,2.48-5.53,3.87-.57.44-1.62,1.89-2.2,1.84-.92-.08-.4-3.07-.38-3.72a.58.58,0,0,0-1.08-.3,10.49,10.49,0,0,1-2.1,2.36c-.55.51.27,1.34.82.83Z"/><path class="cls-4" d="M35.32,10.34c.54-1.55,2.41-2.87,3.59-3.92,1-.87,1.42-2.1,2.27-3.08.5-.56-.33-1.39-.82-.82a13.2,13.2,0,0,0-1.3,1.86,7.71,7.71,0,0,1-1.64,1.73c-1.14,1-2.71,2.45-3.23,3.92-.24.71.88,1,1.13.31Z"/><path class="cls-4" d="M62.55,7.25A13,13,0,0,0,66.69,6.1a28,28,0,0,1,4.93-1.47c.74-.15.43-1.27-.31-1.12a26.46,26.46,0,0,0-4.44,1.27,14,14,0,0,1-4.32,1.3c-.75,0-.75,1.21,0,1.17Z"/><path class="cls-4" d="M74.39,3.67c-1.08,1.42-2.71,2.45-3.15,4.26a.59.59,0,0,0,.72.71c1.2-.19,2.42-.31,3.63-.49a12.59,12.59,0,0,1,3.91-.3c.74.12,1-1,.31-1.13a10.71,10.71,0,0,0-3.48.15c-1.56.23-3.13.4-4.68.65l.71.72c.39-1.58,2.07-2.71,3-4,.46-.6-.56-1.18-1-.59Z"/><path class="cls-4" d="M80.59,8.43c-.66.83-2.13,2.27-1.8,3.47.27,1,1.69.85,2.52.86,1.88,0,3.84,0,5.72-.08.88-.06,1.75-.21,2.64-.25.64,0,2-.27,2.58.09v-1c-.76.51-1.6,1-2.3,1.59-.36.3-.61.52-.6,1a.6.6,0,0,0,.29.5c2.32,1.11,5.83-.25,8.22-.52C98.58,14,99.3,14,100,14a4.49,4.49,0,0,1,.89,0c-.19-.19-.83.28-1,.38-.56.34-1.75,1-1.85,1.71a.6.6,0,0,0,.41.72c2.81.61,5.75-.41,8.56-.16l-.41-1a2,2,0,0,0-.37.66c-.25.71.87,1,1.12.31l.07-.14a.59.59,0,0,0-.41-1c-2.7-.24-5.56.79-8.25.2l.41.72c0,.05,1.12-.86,1.38-1.06A6.83,6.83,0,0,0,102,13.93a.53.53,0,0,0,0-.58c-.49-.71-1-.59-1.77-.55a34.37,34.37,0,0,0-3.91.33c-1.52.23-3.08.39-4.6.64a1.35,1.35,0,0,0-1.25.39,5.54,5.54,0,0,1,.76-.5c.54-.36,1-.77,1.57-1.14a.59.59,0,0,0,0-1,4.77,4.77,0,0,0-2.63-.27c-1.42,0-2.82.27-4.23.3s-2.78,0-4.17,0c-.52,0-1.65.17-1.77-.29s1.13-1.72,1.39-2.05c.46-.58-.36-1.41-.83-.82Z"/><path class="cls-4" d="M106.05,17.8c2.34-.32,4.67-.67,7-1.08a29.81,29.81,0,0,0,3.41-.85,7.94,7.94,0,0,1,3.9.09L120,15.1c-.59,1.09-2.67,1.4-2.58,2.88.06,1,1.06,1.16,1.86,1.19a33.13,33.13,0,0,0,6.36-.63c2.16-.33,4.72-1.39,6.89-1.12l-.5-.88c-.4.61-1.51.7-2,1.34a.6.6,0,0,0,0,.82c.76.77,2.2.28,3.13.13a42.68,42.68,0,0,1,6.49-.29,14,14,0,0,1,3.48.22,23.37,23.37,0,0,1,2.69,1,9.51,9.51,0,0,1,2.57,1.75c.64.53,1.39.9,2,1.47s1.15,1.39,1.79,2,1.58,1.24,2.26,2a15.18,15.18,0,0,0,1.39,1.6,7.53,7.53,0,0,0,2,1c2.21.91,5.71-.06,5.88-2.8.05-.75-1.12-.74-1.16,0-.14,2.23-3.23,2.12-4.64,1.55s-2.11-1.76-3.29-2.84c-.6-.54-1.26-1-1.82-1.56s-1-1.28-1.61-1.83c-1-.91-2.18-1.72-3.25-2.53a12.66,12.66,0,0,0-7.46-2.3c-1.7,0-3.4-.08-5.09,0-.77,0-4.1.95-4.55.5v.82c.58-.75,1.66-.77,2.18-1.57.27-.41-.1-.82-.5-.88a12.63,12.63,0,0,0-4,.56c-1.63.36-3.27.63-4.93.85-.94.13-1.87.27-2.82.32-.18,0-1.64.19-1.75,0-.25-.39,1.73-1.81,2-2.31a.6.6,0,0,0-.35-.86,11,11,0,0,0-3.29-.33,30.09,30.09,0,0,0-3.48.89c-2.68.56-5.43.91-8.15,1.29-.74.1-.42,1.22.31,1.12Z"/><path class="cls-4" d="M31.28,36.78c2.2-.48,4.37-1.1,6.56-1.61a37.3,37.3,0,0,1,6.24-.46l-.3-1.09c-1.08.83-2.25,1.45-3.37,2.22a1.65,1.65,0,0,0-.91,1.28.58.58,0,0,0,.58.58,10.8,10.8,0,0,0,2.5-.52A19.12,19.12,0,0,1,46.51,37a9.27,9.27,0,0,1,1.89.21l.45.12c.37,0,.34.16-.1.37a2.85,2.85,0,0,0-.47,1.54.59.59,0,0,0,.58.58c1.73.12,3.47-.45,5.2-.46.39,0,1.54-.05,1.75.18s0,.22-.45.45c-.71.4-1,1-1.69,1.43a.59.59,0,0,0-.21.8c.32.5.84.53,1.38.67,1.2.3,2.43.53,3.62.87,2.26.64,3.95,2.34,6.37,2.49.75,0,.75-1.12,0-1.17-2-.12-3.5-1.55-5.33-2.21a26.68,26.68,0,0,0-2.8-.71c-.31-.07-2.05-.25-2.23-.53l-.21.8c.56-.37.89-.94,1.46-1.31a16.77,16.77,0,0,0,1.82-1,.6.6,0,0,0,.15-.57c-.26-1.19-2.12-1.31-3.08-1.36-1.93-.1-3.83.58-5.75.45l.58.59c0-.82,1.21-1.6.73-2.45-.33-.59-1.36-.7-1.93-.8a18.27,18.27,0,0,0-4.05-.14c-1.38.06-2.77.74-4.11.7l.59.58c0-.29,1.43-.9,1.65-1a22.44,22.44,0,0,0,2-1.46c.41-.32.35-1.13-.29-1.09a41.93,41.93,0,0,0-6,.4c-2.38.47-4.71,1.2-7.08,1.71-.73.16-.42,1.29.31,1.13Z"/><path class="cls-4" d="M32.73,48.39a30.56,30.56,0,0,1,5.72-.57,9.65,9.65,0,0,0,2.12.18c.34-.08.28.21.4-.25s0-.2-.29-.2c-1.34,0-2.54,2.17-.72,2.44a23.6,23.6,0,0,0,3.14-.11c.38,0,.22,0,.22-.07,0,.13-.27.38-.33.51a2.75,2.75,0,0,0-.32,1.57c.34,2.11,4.45.18,5.76.64l-.35-.86c-.21.42-.92.73-1.29,1-.59.47.24,1.29.82.82s1.16-.65,1.48-1.27a.6.6,0,0,0-.35-.86c-1.14-.4-2.69.09-3.86.19-.16,0-.8.16-.93.06-.44-.35.41-1.12.51-1.39a1.19,1.19,0,0,0,.12-.83c-.21-.58-.95-.67-1.48-.71a11.2,11.2,0,0,0-1.92,0c-.34,0-1.64.34-.6.11.52-.12,1.43-.37,1.56-1s-.33-.86-.85-1c-2.9-.7-6,0-8.87.37-.74.1-.42,1.23.31,1.12Z"/><path class="cls-4" d="M39.68,58.66a36.17,36.17,0,0,1,6.39-.82c.12,0,1.69,0,1.69.22s-.59.55-.78.71-.76.51-.86.92c-.15.66.4,1,1,1.05,1.58.27,3.44-.75,5,0l-.27-.66c-.24.63-1.14.86-.82,1.69s1.89,1.15,2.54,1.52a7,7,0,0,1,1.59.92c.57.59,0,1-.52,1.54-.79.92-1.57,1.72-1.18,3,.22.71,1.35.41,1.12-.31-.59-1.9,4-3.11,1.6-4.94A20.24,20.24,0,0,0,53,61.69a4.35,4.35,0,0,0-.79-.3,5.66,5.66,0,0,0,.72-1,.6.6,0,0,0-.27-.66,7.93,7.93,0,0,0-4.75-.19,2.6,2.6,0,0,1-.4,0c-.22,0-.2.05.05.22a5.4,5.4,0,0,0,.89-.64c.38-.37.79-.76.67-1.36-.25-1.2-2.37-1.13-3.3-1.13a39.94,39.94,0,0,0-6.42.87c-.74.11-.42,1.24.31,1.12Z"/><path class="cls-4" d="M39,27.76a16,16,0,0,1,2.22-5c.43-.62-.58-1.2-1-.59a17.24,17.24,0,0,0-2.34,5.32.59.59,0,0,0,1.13.31Z"/><path class="cls-4" d="M45.06,18c-.08,1.54-.83,6.39,2.24,4.89,1.49-.73,2.62-2.07,4.13-2.82s3.65-2.14,5.48-2.33l-.57-.43c.09.37-.27,1.14-.36,1.51a22,22,0,0,1-.6,2.15c-.28.83-.49,1.51.09,2.24a.58.58,0,0,0,.7.09,13.48,13.48,0,0,1,3.31-1.43c1.13-.29,2.3-.3,3.44-.5a12.79,12.79,0,0,1,2.47-.67c.65,0,1.4.81,2,1.12a.58.58,0,0,0,.58-1c-.76-.43-1.46-1.33-2.36-1.34a13.93,13.93,0,0,0-2.47.67c-1.29.27-2.63.28-3.92.61a14.19,14.19,0,0,0-3.58,1.54l.7.09c-.29-.36.72-2.84.82-3.25A4.94,4.94,0,0,0,57.47,17a.59.59,0,0,0-.56-.43,8.2,8.2,0,0,0-2.84.94c-1.29.65-2.66,1.2-3.91,1.91a10,10,0,0,0-1.43,1c-.47.35-1.16,1.19-1.72,1.32-1,.25-.91-.69-.89-1.39s.07-1.55.11-2.32-1.13-.75-1.17,0Z"/><path class="cls-4" d="M29.79,97.69a14.78,14.78,0,0,1,1.78,3.58,3.85,3.85,0,0,0,1.63,2,8.66,8.66,0,0,0,6.69.63,8.32,8.32,0,0,0,2.75-1.63c.86-.7,2.12-.44,3.25-.43a5,5,0,0,0,2.83-.46,8.18,8.18,0,0,0,2.4-1.66c1.5-1.78,1.3-3.59.16-5.46-.68-1.13-1.74-2.25-1.87-3.62-.15-1.66,1-3.12,2.07-4.28A4.33,4.33,0,0,1,55,84.51a6.37,6.37,0,0,0,2.82-.61,3.15,3.15,0,0,0,1.51-2.2c.06-.18.45-1.86.68-1.83a13.93,13.93,0,0,0,.26,1.86.59.59,0,0,0,.59.58,2,2,0,0,0,1.55-.79c.6-.69.38-1.13.64-1.93l-.72.4c.92.21,0,1.47,1.12,1.81,1.33.41,3.05-1,4.35-1.13.74-.07.75-1.24,0-1.17a7.82,7.82,0,0,0-2.26.66c-.4.14-1.46.51-1.57.39s0-.85-.11-1a1.82,1.82,0,0,0-1.22-.66.6.6,0,0,0-.72.41c-.2.62-.19,1.82-1.06,1.87l.58.58c0-.9-.56-3.71-2.09-2.85-.58.33-.85,1.43-1,2A3.09,3.09,0,0,1,55,83.34a4.52,4.52,0,0,0-2.77.64A11.47,11.47,0,0,0,50,86.25c-1.29,1.57-2.26,3.56-1.52,5.6.89,2.42,4.24,4.93,1.42,7.44a5.72,5.72,0,0,1-4,1.37,10.79,10.79,0,0,0-3.21.11c-.76.22-1.08.84-1.71,1.28a7.11,7.11,0,0,1-5.26.91,3.81,3.81,0,0,1-3.3-2.87,9.47,9.47,0,0,0-1.61-3c-.44-.6-1.45,0-1,.58Z"/><path class="cls-4" d="M45.49,93.73c-1.17.48-2.54.92-3.27,2s-.72,3,.46,3.8,2.33,0,2.92-1.15a8.52,8.52,0,0,0,.63-4.12.59.59,0,0,0-1.17,0,10.68,10.68,0,0,1-.16,2.65,4,4,0,0,1-.31.88c-.24.46-.3.55-.9.56s-.65,0-.75-.55A2.26,2.26,0,0,1,43,97a1.89,1.89,0,0,1,.69-1,8.25,8.25,0,0,1,2.16-1.08C46.49,94.57,46.19,93.44,45.49,93.73Z"/><path class="cls-4" d="M43.21,98.79c.72-.15,2-.37,2.42-1a4.84,4.84,0,0,0,.6-2.74.59.59,0,0,0-1.17,0c0,.58.06,1.6-.39,2.07a4,4,0,0,1-1.77.58c-.74.15-.43,1.28.31,1.12Z"/><path class="cls-4" d="M38,68.38c-1,.73-2.21,1.43-2.51,2.73a12.51,12.51,0,0,0,.17,4.56c.11.74,1.23.43,1.12-.31a15.22,15.22,0,0,1-.21-3.24c.09-1.41.95-2,2-2.73.6-.44,0-1.46-.59-1Z"/><path class="cls-4" d="M37.26,68.66a5.26,5.26,0,0,1,1,3.43,4.39,4.39,0,0,1-1.9,2.6c-.56.5.27,1.32.83.83,1-.91,2.09-1.82,2.25-3.27a6.42,6.42,0,0,0-1.12-4.18.59.59,0,0,0-1,.59Z"/><path class="cls-4" d="M37.31,69.66c-.66,1.57-1.23,3.16-1.77,4.77-.23.72.89,1,1.13.31.53-1.61,1.11-3.2,1.76-4.77.29-.69-.84-1-1.12-.31Z"/><path class="cls-4" d="M34.86,69.51a5.57,5.57,0,0,0-1.42,1.89,2.63,2.63,0,0,0,.5,2.24c.4.63,1.41,0,1-.59s-.6-1-.29-1.53a6.88,6.88,0,0,1,1-1.19c.5-.55-.32-1.38-.83-.82Z"/><path class="cls-4" d="M28.31,64.41a12.82,12.82,0,0,1,2.51-1c.05,0,.75-.16.77-.15a4.27,4.27,0,0,1,0,.81c.13,1.2.3,2,1.59,2.13.75.07.74-1.09,0-1.17-.92-.1.1-2.57-1.23-2.89s-3.09.76-4.25,1.31c-.68.32-.08,1.33.59,1Z"/><path class="cls-4" d="M24,61.07c1.71-.21,3.52-.77,4.9.45a4.09,4.09,0,0,0,2.31,1.29c.73.1,1-1,.31-1.13-1-.14-1.36-.61-2-1.34a2,2,0,0,0-.95-.68c-1.38-.41-3.18.07-4.56.24-.73.09-.74,1.25,0,1.17Z"/><path class="cls-4" d="M50,75.85c-1,1.67-2.1,3.27-2.16,5.27a.59.59,0,0,0,1.17,0c0-1.76,1.14-3.21,2-4.68a.58.58,0,0,0-1-.59Z"/><path class="cls-4" d="M41.66,85.32l-.73,2.28c-.22.72.9,1,1.13.31l.73-2.28c.22-.72-.9-1-1.13-.31Z"/><path class="cls-4" d="M74.48,75.11c-1.43,1.25-2.73,2.62-4.12,3.9s-3.06,2.21-4.25,3.68c-.9,1.1-2,2.48-2.17,4a7.42,7.42,0,0,0,1.23,4.48,10.14,10.14,0,0,0,1.58,1.56,15.46,15.46,0,0,1,1.74,2c.64.8,1.92,1.67,1.23,2.84-.42.7-1.41,1-2,1.6a2.49,2.49,0,0,0-.54,2.76A2.32,2.32,0,0,0,68,103c.11.08,1.47.67,1.47.49a.59.59,0,0,0,1.17,0c0-.87-.69-.88-1.33-1.17-2.69-1.24.29-2.87,1.27-3.94a2.18,2.18,0,0,0,.32-2.52,6.52,6.52,0,0,0-1.18-1.53c-.52-.61-.91-1.32-1.47-1.9-1.34-1.4-2.51-2.13-2.92-4.19a4,4,0,0,1,.62-3.34,14.72,14.72,0,0,1,1.48-2c1.18-1.25,2.73-2.13,4-3.32s2.57-2.54,3.93-3.73c.57-.49-.26-1.32-.82-.82Z"/><path class="cls-4" d="M73.9,76.09c.35-1,.74-1.93,1.1-2.91.29-.78.43-1.71.79-2.45l-1.09-.3a24,24,0,0,1,.11,4.15c0,.59.81.77,1.08.29a11.23,11.23,0,0,1,4.4-4.14l-.88-.51c0,.34-.45.81-.59,1.09a5.22,5.22,0,0,0-.47,1.43.61.61,0,0,0,.41.72c.88.3,2.08-.36,3-.47.74-.09.75-1.26,0-1.16a13.67,13.67,0,0,0-1.41.2c-.28.06-.95.4-1.25.3l.41.72c.18-1,1.14-1.82,1.1-2.83a.59.59,0,0,0-.88-.5,12.26,12.26,0,0,0-4.81,4.56l1.08.3a24,24,0,0,0-.1-4.15c-.06-.51-.81-.87-1.09-.29a20.89,20.89,0,0,0-.71,2.2c-.41,1.16-.88,2.29-1.3,3.44-.26.7.87,1,1.13.31Z"/><path class="cls-4" d="M80.06,89.4A3.11,3.11,0,0,1,82.69,89a11.63,11.63,0,0,0,1.82.57,6.75,6.75,0,0,0,3.13,0A.6.6,0,0,0,88,88.7c-.59-1-2.1-1-2-2.44l-.87.5a9.12,9.12,0,0,0,5.12,1.31c1.19-.11,2.44-.73,1.87-2.09l-.41.71c1.18-.37,2.28.26,3.37-.46.1-.07.09-.29.16-.33a2.25,2.25,0,0,1,.83-.2c1-.16,2-.48,3-.7.74-.16.43-1.28-.31-1.12s-1.68.47-2.53.62a3.65,3.65,0,0,0-2,.54c-.41.35-.07.36-.71.48s-1.46-.18-2.18,0a.58.58,0,0,0-.4.72c.17.41-1.25.64-1.45.63a7.28,7.28,0,0,1-1.48-.13,11.49,11.49,0,0,1-2.36-1,.58.58,0,0,0-.87.5,2.26,2.26,0,0,0,.46,1.88c.41.48,1.37.68,1.66,1.15l.35-.86c-1.61.63-3.25-.33-4.75-.68a4.66,4.66,0,0,0-3.11.64c-.66.36-.07,1.37.59,1Z"/><path class="cls-4" d="M81.23,87.87c-2.56,1.37-3.26,4-.75,5.81.6.44,1.23.84,1.84,1.26a1.66,1.66,0,0,1,.79,1c.59,1.31,2.72,3,1,4.26a6.31,6.31,0,0,1-2.7.93,2.74,2.74,0,0,0-1.37.44c-.44.39-.16.67-.36,1.12-.27.64-1.34,1.07-1.93,1.45a11.72,11.72,0,0,1-5.06,1.74,13.82,13.82,0,0,1-1.91.17,6.09,6.09,0,0,0-1.15.13q-.09.27,0,0c.06-.21.12-.43.16-.64.08-.39.12-.77.17-1.16.08-.75-1.09-.74-1.17,0s-1,2.45.18,2.85a9,9,0,0,0,2.84,0c.82-.08,1.66-.21,2.48-.35a14.4,14.4,0,0,0,5-2.28c.54-.33,1.25-.53,1.51-1.17.06-.15,0-.64.08-.69.27-.46.65-.38,1.09-.47,1.27-.24,3.21-.61,3.78-1.93a4.07,4.07,0,0,0-.38-3.37,10.49,10.49,0,0,1-1.15-1.64,2,2,0,0,0-.69-1c-.63-.52-1.4-.92-2.07-1.4a2.22,2.22,0,0,1-1.17-1.56c-.34-1.34.42-1.89,1.54-2.49.66-.35.07-1.36-.59-1Z"/><path class="cls-4" d="M69.58,104.85c.63-.44,1.25-.88,1.85-1.35l.56-.45c.54-.58,1-.63,1.36-.16.69.22.75.32,1.42,0a19.05,19.05,0,0,1,3.15-1c1.34-.29,2.51-1,3.86-1.34.74-.17.43-1.3-.31-1.13-1.45.33-2.74,1.09-4.19,1.39-.51.1-1,.27-1.49.42s-1,.41-1.43.49c-.66.14-1.06-.53-1.79-.42a2.59,2.59,0,0,0-1.18.72c-.78.64-1.57,1.24-2.4,1.81-.6.43,0,1.45.59,1Z"/><path class="cls-4" d="M48.36,89a12.24,12.24,0,0,1,2.88,2.1,2.29,2.29,0,0,0,1.76.76.57.57,0,0,0,.58-.58,17.13,17.13,0,0,1-.27-1.7c0-.82.14-.57.78-.36,1,.33,2.75.78,3.79.4a.6.6,0,0,0,.41-.72c-.19-.71,1.73-.36,2.28-.34a3.5,3.5,0,0,0,1.85-.16.58.58,0,0,0,0-1l-.1-.12-.5.88c.62-.05,1.25,0,1.87,0a.58.58,0,0,0,0-1.16c-.62,0-1.25,0-1.87,0a.6.6,0,0,0-.51.88,1.14,1.14,0,0,0,.53.53v-1c-.43.24-1.68,0-2.14,0a6.57,6.57,0,0,0-2,.05c-.87.31-.7,1-.51,1.77l.41-.71c-1,.35-2.44-.2-3.39-.48-.47-.14-1.08-.41-1.55-.12-1,.63-.32,2.49-.21,3.38l.58-.59c-.82,0-1.68-1.23-2.28-1.68A11.13,11.13,0,0,0,49,88c-.67-.34-1.26.67-.59,1Z"/><path class="cls-4" d="M97.86,83.34a29.34,29.34,0,0,0,11.43.58,26.46,26.46,0,0,0,6-1.35c1.94-.74,3.94-1.51,6-2.06a.58.58,0,0,0-.15-1.14c-1.47-.15-4.23.37-5.28-.93l-.12.92c.85-.42,2.54,0,3.49-.08A25.56,25.56,0,0,0,122.1,79a13.31,13.31,0,0,0,4.76-1.41.59.59,0,0,0,.27-.66A1.68,1.68,0,0,0,126,75.73c-.5-.17-1.72,0-2-.43l-.41,1A28.8,28.8,0,0,0,133.34,75,.58.58,0,0,0,133,73.9a7.6,7.6,0,0,1-2.65.21,5,5,0,0,1-2-.42v1a6.8,6.8,0,0,1,2.74-.15,15.87,15.87,0,0,0,3-.19,6.27,6.27,0,0,0,4.29-2.79A21.41,21.41,0,0,1,139.67,69a16.63,16.63,0,0,0,1.5-2.37c.92-1.81.54-3.94.57-5.91,0-.77-1.09-.73-1.17,0,0,.12-.73.5-.87.63-.51.45.14,1.22.71.91a5.37,5.37,0,0,0,2.26-3.63c.1-.75-1.07-.74-1.17,0a4.69,4.69,0,0,1-1.68,2.63l.71.91c.57-.5,1.12-.62,1.21-1.45h-1.17c0,2.11.29,4.09-.78,6a34.63,34.63,0,0,0-2.2,3.77c-1,2.27-3.41,2.86-5.64,2.9-1.28,0-3-.3-4.19.31a.59.59,0,0,0,0,1c1.36,1,4,.69,5.58.32L133,73.9a28,28,0,0,1-9.5,1.23.59.59,0,0,0-.41,1c.57.72,2.6.25,2.88,1.06l.27-.66c-1.54,1-4.12,1.29-5.91,1.48a20,20,0,0,1-3.28.09,3.34,3.34,0,0,0-2,.25.6.6,0,0,0-.12.92c1.32,1.63,4.29,1.08,6.11,1.26L121,79.39c-3.69,1-7.06,2.71-10.88,3.25a45.33,45.33,0,0,1-5.58.48,24.19,24.19,0,0,1-6.33-.9.58.58,0,0,0-.31,1.12Z"/><path class="cls-4" d="M140.16,40.78a25.33,25.33,0,0,0,.31,5.15c.15.82.16,2,1,2.49a.59.59,0,0,0,.8-.21c.34-.68.62-1.39,1-2.05s-.65-1.26-1-.59-.63,1.37-1,2l.8-.21c-.4-.23-.5-2.1-.56-2.46a23.24,23.24,0,0,1-.15-4.17.58.58,0,0,0-1.16,0Z"/><path class="cls-4" d="M142,50.27c.48,1.38.9,2.78,1.38,4.16a.58.58,0,0,0,1.12,0,9.31,9.31,0,0,1,.7-1.91,2.64,2.64,0,0,0,.43-1.27h-1.16c.17,1.49.36,3.74,1.69,4.74a.74.74,0,0,0,1.07-.06,1,1,0,0,0,.17-.67c0-.2,0-1.18.21-1.33l-.87-.51c.05.83.09,1.67.12,2.5s1.19.75,1.16,0-.06-1.67-.12-2.5c0-.4-.49-.78-.87-.5a1.45,1.45,0,0,0-.59.94,4.34,4.34,0,0,0-.18.87c0,.28-.16.67,0,.48l.56-.15c-.27-.08-.71-1.25-.78-1.43a9.63,9.63,0,0,1-.45-2.38.58.58,0,0,0-1.16,0c0,.52-.52,1-.7,1.45s-.25.95-.39,1.42h1.12c-.47-1.38-.9-2.78-1.37-4.16-.24-.71-1.37-.41-1.13.31Z"/><path class="cls-4" d="M97.71,46.17a17.43,17.43,0,0,1,3.54,7.31,31,31,0,0,1,1.35,8.27l.87-.5c-.67-.37-1.07-1.27-1.67-1.76a5.63,5.63,0,0,0-2.3-1.06.59.59,0,0,0-.31,1.13c2.56,1,2.11,3.81,1.7,6l.86-.35c-.31-.21-.45-.54-.79-.74a3.2,3.2,0,0,0-1.25-.35c-.57-.07-.67.66-.41,1a9.53,9.53,0,0,1,1.57,3.84c.18.73,1.31.42,1.13-.31a10.89,10.89,0,0,0-1.88-4.36l-.41,1c.57.07,1,.61,1.45.93a.58.58,0,0,0,.85-.35c.28-1.45.77-3.31.18-4.73a4.82,4.82,0,0,0-2.69-2.68l-.31,1.13A4.68,4.68,0,0,1,102,61.39a2.94,2.94,0,0,0,.92.87.59.59,0,0,0,.87-.51,32.16,32.16,0,0,0-1.54-9.11,17.74,17.74,0,0,0-3.69-7.3c-.5-.56-1.32.27-.82.83Z"/><path class="cls-4" d="M98.22,83.51A5.7,5.7,0,0,1,97,82.18l-.09.71c.76-.82,3,.21,3.46-1.35a1,1,0,0,0-.29-.94c-.17-.22-1-.43-1.06-.66-.28-.78,1.46-.82,1.7-.86,1.1-.18,3.46-.42,4.11-1.58a1.25,1.25,0,0,0,0-1.16,2,2,0,0,0-.61-.67s-1.24-.64-.71-.83c.7-.26.4-1.38-.31-1.13-1,.35-1.88,1.38-.88,2.25.28.25,1.32.64,1.22,1.11-.06.24-1.24.47-1.46.54a21.84,21.84,0,0,0-3.43.76c-.93.43-1.58,1.51-.66,2.36.14.12,1.11.45,1.12.62,0,0-1.32.11-1.48.12a1.88,1.88,0,0,0-1.59.59.6.6,0,0,0-.09.71,7.13,7.13,0,0,0,1.39,1.56c.58.48,1.41-.34.83-.82Z"/><path class="cls-4" d="M162,29.05a11.94,11.94,0,0,0,3.84-4.72c.46-1,1-1.84,1.52-2.78a9.35,9.35,0,0,0,.72-2.91c.11-.74-1-1.05-1.13-.31a9.14,9.14,0,0,1-.6,2.63c-.37.79-.9,1.5-1.28,2.28a11.78,11.78,0,0,1-3.66,4.8c-.61.43,0,1.44.59,1Z"/><path class="cls-4" d="M167.41,16.19c.78,1.41,1.67,2.81,1.4,4.5-.2,1.28-1.11,2.25-1.27,3.5-.06.4.41.64.73.56a2,2,0,0,0,1-.54l-1-.57c-.17.88-2,1.53-2.69,2-.46.37-1.11.91-1.11,1.56,0,1.41,2.11,1.46,3.06,1.49l-.15-1.14c-1.08.39-2.56,1.14-3,2.31a.59.59,0,0,0,.27.66,2.43,2.43,0,0,0,1.58.23,6.75,6.75,0,0,0,1.49,0c.51-.23-.22-.11-.39-.07-1.17.33-1.81,1-3.11,1.06-1.14.06-2.29-.08-3.43-.09a.59.59,0,0,0,0,1.17c2.06,0,4.1.35,6-.53.83-.38,2.17-1,2.24-2a.57.57,0,0,0-.29-.5,2.43,2.43,0,0,0-1.31-.17c-.53,0-1.79.24-2.23-.07l.26.66c.23-.69,1.49-1.26,2.14-1.5a.58.58,0,0,0-.16-1.14,6.32,6.32,0,0,1-1.23-.1c-.43-.1-.52-.09-.48-.41s1.35-1,1.72-1.26c.75-.46,1.67-.91,1.86-1.85a.59.59,0,0,0-1-.56l-.48.24.74.56c.09-.68.7-1.34.94-2a6.78,6.78,0,0,0,.42-2.4,9.76,9.76,0,0,0-1.65-4.19c-.36-.66-1.37-.07-1,.59Z"/><path class="cls-4" d="M158.06,33.27c1-.11,2.22-.18,2.93.6.53.58.82,1.28,1.42,1.83,1.72,1.58,3.63,3.47,4.14,5.86a11.9,11.9,0,0,1,0,4.25c-.06.32-.35,2.76-.82,2.87-.24.07-1.7-1-2.07-1.2a2.24,2.24,0,0,0-1.65-.24.6.6,0,0,0-.41.72c.21,1.08.64,2.18,0,3.22-.45.75-1.11.79-1.85,1.1s-.86.57-.76,1.26c.14.89.47,1.5,0,2.41a11.79,11.79,0,0,1-1.49,1.67,16.47,16.47,0,0,0-1.85,4,14.52,14.52,0,0,0-1.11,8.27,32.7,32.7,0,0,0,1,4.48c.44,1.41,1.37,2.55,1.86,3.91.25.7,1.38.4,1.13-.31-.49-1.36-1.43-2.5-1.86-3.91a31.29,31.29,0,0,1-1-4.48,12.4,12.4,0,0,1,.5-6,18.52,18.52,0,0,1,2.22-5.14c.74-1,1.89-1.77,2.17-3a2.29,2.29,0,0,0-.08-1.24c-.24-.81-.48-.57.25-.93.92-.45,1.63-.6,2.08-1.66.58-1.36.19-2.55-.08-3.9l-.4.71c1-.39,2.54,1.33,3.48,1.71a.6.6,0,0,0,.57-.15c1.18-1,1.34-3.68,1.48-5.11a9.11,9.11,0,0,0-1.24-6.09,20.09,20.09,0,0,0-1.71-2.37,28.79,28.79,0,0,1-2.39-2.29c-.62-.86-.44-1.33-1.43-1.67a6.54,6.54,0,0,0-3-.28c-.74.08-.75,1.25,0,1.16Z"/><path class="cls-4" d="M157,79.68c-1.19,1.7-2.27,3.79-1.93,5.95a3.75,3.75,0,0,0,1,2c1.18,1.29,2.18,2,2.17,3.93a.59.59,0,0,0,1.17,0c0-2-.84-3.08-2.19-4.45-2-2-.64-4.86.76-6.87.43-.61-.58-1.2-1-.59Z"/><path class="cls-4" d="M157.73,91.82c-1-.68-1.87-1.84-3.08-2.08s-2,.61-3.07.76l.71.72a4,4,0,0,0,.11-1.08.58.58,0,0,0-.58-.58,4.48,4.48,0,0,1-1.7-.38,4.64,4.64,0,0,0-1.93,0,19.83,19.83,0,0,1-2.67-.16,3.62,3.62,0,0,1-2.29-1.45c-.49-.57-1.31.26-.83.83a4.87,4.87,0,0,0,4,1.82,14,14,0,0,1,3.37.21,5.39,5.39,0,0,0,2,.32l-.58-.59-.07.77a.59.59,0,0,0,.72.71c1.21-.16,1.88-1.22,3.23-.39.69.43,1.34,1.12,2,1.59s1.2-.58.59-1Z"/><path class="cls-4" d="M143.11,88.47c1.76-1.28,4.65-2.5,5.67-4.54a4.25,4.25,0,0,0,.26-2.61,12.14,12.14,0,0,1-.56-2.09,5,5,0,0,1,0-1.34c.59-.45,0-1.46-.59-1-1.15.87-.57,3-.21,4.15.6,1.86-.23,3-1.76,4.09-1.14.78-2.3,1.53-3.42,2.34-.6.44,0,1.45.59,1Z"/><path class="cls-4" d="M148.26,76.72a16.9,16.9,0,0,1-4.54-3.09c-1.39-1.2-2.88-2.06-3.83-3.69a.58.58,0,0,0-1,.59c1.09,1.88,2.78,2.87,4.41,4.27a16.6,16.6,0,0,0,4.65,3c.69.28,1-.84.31-1.12Z"/><path class="cls-4" d="M142.19,86.72c-.81,1-2.19,2.3-2.49,3.55s.83,1.33,1.65,1.68a18.6,18.6,0,0,0,5,1.48,13.26,13.26,0,0,0,4.82-.45l-.66-.86C150,93.19,151,93.81,152,94c1.93.41,3.28-.28,4.93-1.2.66-.36.07-1.37-.59-1a9.49,9.49,0,0,1-2.16,1.08,10.44,10.44,0,0,1-2.68-.19.59.59,0,0,0-.66-.86,12.76,12.76,0,0,1-7.7-.42c-.43-.16-2.11-.67-2.13-1.06s.49-.83.65-1.07A19.39,19.39,0,0,1,143,87.55c.48-.57-.34-1.4-.83-.83Z"/><path class="cls-4" d="M157.39,60a19.48,19.48,0,0,0,.81,4.37c.51,1.22,1.67,1.5,2.51,2.41,1.64,1.77-.4,2.73-.8,4.35a3.21,3.21,0,0,0,.72,2.66,6.67,6.67,0,0,0,2.74,2c.28.1.72.08.95.24-.29-.19-.06-.08-.1.36a13.88,13.88,0,0,1-.45,2.51,3.92,3.92,0,0,1-1.1,2.36c-.55.5-1.08.56-1.16,1.43l.43-.57A4.18,4.18,0,0,0,160,83.35c-.26.32-.23.78-.49,1.08a9.48,9.48,0,0,1-2.74,1.31c-.68.28-.38,1.41.31,1.13,1.08-.45,2.78-.91,3.52-1.85.23-.29.16-.56.32-.85a2.85,2.85,0,0,1,1.34-1,.61.61,0,0,0,.43-.56c0,.17.25,0,.48-.12a6.39,6.39,0,0,0,.93-1.09,3.41,3.41,0,0,0,.79-2c.17-1.19.87-2.69.47-3.93-.33-1-1.58-.78-2.42-1.3a4.34,4.34,0,0,1-1.8-1.9c-.32-.94.34-1.57.79-2.31a3.5,3.5,0,0,0,.41-2.94C162,66,161,65.6,160.16,64.94c-1.48-1.11-1.37-3.56-1.64-5.23-.13-.74-1.25-.43-1.13.31Z"/><path class="cls-4" d="M157,84.7a6.61,6.61,0,0,1,1.25-2.63A18.29,18.29,0,0,1,160.52,81c1.14-.71,1.76-.69,2.16-2l-.56.43c.42,0,.5.43.56.78.12.74,1.24.43,1.12-.31-.15-1-.61-1.68-1.68-1.64a.63.63,0,0,0-.57.43c-.24.81-.48.57-1.14,1-.34.21-.63.5-1,.69s-1,.29-1.41.52c-1.28.7-1.69,2.33-2.17,3.61-.27.7.86,1,1.12.31Z"/><path class="cls-4" d="M29.94,98.23c-1.74,1.54-3.82,2.51-5.32,4.3-.66.8-3,2.36-2.32,3.65a.6.6,0,0,0,.51.29,2.17,2.17,0,0,0,.7-.17c.23-.09,1-.86,1.3-.81v-1.13c-2.07.84-2.75,2.5-3.11,4.55-.13.74,1,1,1.12.31.28-1.56.65-3.07,2.3-3.73.46-.19.63-1,0-1.13-.42-.07-1.7.11-1.79.72-.06.41,1.14-.69,1.2-.75a14.3,14.3,0,0,0,1.06-1.14c1.42-1.7,3.51-2.66,5.17-4.13.56-.5-.26-1.32-.82-.83Z"/><path class="cls-4" d="M22,109.49a10.47,10.47,0,0,0,3.24,1.45c1.37.18,2.9.23,4.28.27a.59.59,0,0,0,0-1.17c-1.15,0-2.27-.22-3.43-.23-1.35,0-2.33-.75-3.5-1.32-.68-.33-1.27.67-.59,1Z"/><path class="cls-4" d="M29.53,107.43c-.1.92-.56,2.62,0,3.45s2.41.4,3.26.4a11.43,11.43,0,0,0,4.5-.67c.71-.28,2-.33,2.3-1.15s-.87-1-1.12-.32c.1-.29.07-.21-.53,0a6.26,6.26,0,0,0-.61.21,9.33,9.33,0,0,1-3.61.82c-.7,0-2.5.31-3-.15s-.11-1.9,0-2.54-1.09-.74-1.17,0Z"/><path class="cls-4" d="M36,107a13.83,13.83,0,0,1,1,2.12c.25.7,1.38.4,1.13-.31a16.52,16.52,0,0,0-1.15-2.4.59.59,0,0,0-1,.59Z"/><path class="cls-4" d="M37.5,109.49a15.07,15.07,0,0,0,2.85-.06,3,3,0,0,0,1.78-1.21,1.2,1.2,0,0,0,.24-1.44,2.41,2.41,0,0,0-.74-.68,1.73,1.73,0,0,1-.82-1.47c0-.74-1.21-.75-1.17,0a3.08,3.08,0,0,0,.47,1.66c.15.21,1.18.86,1.2,1,.07.59-1.23,1-1.59,1-.73,0-1.48,0-2.22,0a.58.58,0,0,0,0,1.16Z"/><path class="cls-4" d="M24.83,106.52c-.39.1.52.17.66.31-.33-.33-.32-.07-.39.31a1,1,0,0,0,.66,1.17,8.07,8.07,0,0,0,2.4.67,2.32,2.32,0,0,0,1.08,0l.51-.19c-.32-.33-.41-.35-.28-.07a.59.59,0,0,0,.41.4,7.61,7.61,0,0,0,3.85-.19,3,3,0,0,1,1.53-.24,3.22,3.22,0,0,0,1.92-.33c.68-.3.09-1.31-.59-1-1.63.71-.83-.14-1.75,0a6.21,6.21,0,0,0-1.18.37c-.54.2-3.09.69-3.16.35a.56.56,0,0,0-.4-.41,2.26,2.26,0,0,0-.69,0,1.37,1.37,0,0,1-1.36,0,.61.61,0,0,0-.3-.08c-.12,0-1.37-.13-1.45-.38,0-.09.28-.42.29-.59.05-.8-1.41-1.41-2.07-1.24a.59.59,0,0,0,.31,1.13Z"/><path class="cls-4" d="M14.28,50.1c1.06-.22,1.78-.35,2.24-1.4s.33-3.06,1.31-3.59L17,44.77c.43,1.17.58,2.51,2.08,2.61a.6.6,0,0,0,.59-.59A13.67,13.67,0,0,1,20,43.85l-.43.56c-.3.11.64.35.78.34a.6.6,0,0,0,.56-.74,8,8,0,0,1-.09-2.19c0-.75-1.13-.75-1.16,0a7.7,7.7,0,0,0,.12,2.5l.57-.74c-.46,0-.56-.48-1.09-.29a.61.61,0,0,0-.43.56c0,.61-.4,1.17-.45,1.8a4.83,4.83,0,0,0,.09,1.14l.58-.58c-.74-.05-.77-1.24-.95-1.75a.6.6,0,0,0-.86-.35,3,3,0,0,0-1.17,1.76c-.22.61-.28,1.26-.46,1.88-.29,1-.76,1-1.64,1.23s-.43,1.28.31,1.12Z"/><path class="cls-4" d="M22.47,36.53A6.9,6.9,0,0,0,20.55,44a5.9,5.9,0,0,0,2.25,2.45c.79.54.87.62.5,1.48a3.24,3.24,0,0,0-.38,1.85c.06.75,1.23.75,1.17,0-.09-1.08,1-1.81.74-2.88-.17-.75-.85-1.06-1.44-1.46a4.38,4.38,0,0,1-2.05-3.77,5.59,5.59,0,0,1,2-4.33.59.59,0,0,0-.83-.83Z"/><path class="cls-4" d="M22.79,37.1a4.5,4.5,0,0,0,1.88,3.09c1.26.82,2.93,1.39,4,2.38a4.9,4.9,0,0,1,1,1.12,2.5,2.5,0,0,1-.44,1.86,12.29,12.29,0,0,0-1.37,1.93,2.55,2.55,0,0,0,.83,2.89c.57.48,1.4-.34.83-.83-1.67-1.4.87-3.14,1.38-4.39a2.9,2.9,0,0,0-.81-2.84,8.48,8.48,0,0,0-2.95-2,14.68,14.68,0,0,1-1.5-1,3.91,3.91,0,0,1-1.73-2.58c-.17-.73-1.3-.42-1.12.31Z"/><path class="cls-4" d="M22.56,36.84c.05,1.16-.19,1.84.54,2.88a9.58,9.58,0,0,0,2.81,2.45c1.48.9,3,1.28,2.81,3.4-.15,1.45-.83,2.37-.59,3.87.11.74,1.24.42,1.12-.31-.33-2.12,1.8-4.66-.23-6.52a27.72,27.72,0,0,0-3.1-1.87,5.78,5.78,0,0,1-2.09-2c-.31-.67-.07-1.22-.1-1.88s-1.21-.75-1.17,0Z"/><path class="cls-4" d="M21.94,38.34a5.68,5.68,0,0,0,.26,3.32,5.78,5.78,0,0,0,2.26,1.79c1.72,1,1.83,2.67.52,4.22a3.41,3.41,0,0,0-1.07,2.65.58.58,0,0,0,1.16,0c0-1.37,1.3-2.25,1.76-3.48A3.73,3.73,0,0,0,26.75,44c-.42-.95-1-1.2-1.86-1.65a5.28,5.28,0,0,1-1.6-1.09c-.54-.71-.27-2.07-.19-2.9s-1.09-.74-1.16,0Z"/><path class="cls-4" d="M23.5,55a4.66,4.66,0,0,0,2.41-1.24c.4-.19.4-.29,0-.29-.31-.16-.39-.07-.23.26a1.1,1.1,0,0,0,.47.78,1.29,1.29,0,0,0,1.35,0c1.57-.67,2.67-1.6,4.5-1.38.74.1.74-1.07,0-1.16a6.8,6.8,0,0,0-3.8.78,7.4,7.4,0,0,1-.86.5c-.59.17-.32.11-.59-.17s-.16-.46-.45-.67a.55.55,0,0,0-.59,0,9.31,9.31,0,0,1-2.53,1.45c-.71.21-.41,1.34.31,1.12Z"/><path class="cls-4" d="M21.43,51.4c.8-.27,2-1,2.87-.71.34.1.56.39.88.56a4.58,4.58,0,0,0,1,.36.59.59,0,0,0,.31-1.13,3.29,3.29,0,0,1-1.3-.73,1.46,1.46,0,0,0-1-.33,10.65,10.65,0,0,0-3.12.86c-.71.24-.4,1.36.31,1.12Z"/><path class="cls-4" d="M20.33,31.86c0,1,0,2,.06,3,.05.64.31,1.25.36,1.88l.58-.58s-.69-1.41-.75-1.52a.59.59,0,0,0-1.08.3c-.19,1.46.6,3.28.8,4.75.1.74,1.22.43,1.12-.31-.18-1.32-.93-3.14-.76-4.44l-1.08.29c.4.7.77,2.08,1.75,2.1a.6.6,0,0,0,.59-.59c-.05-.59-.27-1.15-.33-1.74-.12-1-.05-2.1-.09-3.14,0-.75-1.2-.75-1.17,0Z"/><path class="cls-4" d="M6.62,45.43A13.84,13.84,0,0,1,8.44,47.2c.55.5,1.23.85,1.81,1.32a3.59,3.59,0,0,0,1.22.88c.89.27,1.9.47,2.81.7A.58.58,0,0,0,14.59,49c-.82-.21-1.66-.46-2.46-.71a4.78,4.78,0,0,1-1.46-.89c-1.21-.89-2.19-2.17-3.46-3-.64-.39-1.23.62-.59,1Z"/><path class="cls-4" d="M22.21,81.44h.06l-.3-.08c-.1-.06.11.08.14.1a2.5,2.5,0,0,0,.25.09l.12,0s.16.11.11.06.17.17.18.18l.06.11c0,.07,0,0,0-.09s0,.12,0,.14a.6.6,0,0,0,.4.72.59.59,0,0,0,.72-.41,1.22,1.22,0,0,0,0-.78,2.13,2.13,0,0,0-.42-.59,1.45,1.45,0,0,0-.56-.42l-.22-.08c-.12,0-.06,0,0,0a2,2,0,0,0-.23-.14.66.66,0,0,0-.28,0,.58.58,0,0,0,0,1.16Z"/><path class="cls-4" d="M23.25,81.9v0a.59.59,0,0,0,.86.35,1.42,1.42,0,0,0,.48-.43,1.23,1.23,0,0,0,.11-.68.59.59,0,0,0-.58-.58.6.6,0,0,0-.59.58.66.66,0,0,1,0,.14v.1a.21.21,0,0,1,.05-.15c.06-.08.06-.1,0,0s.06,0,0,0l-.12.08.86.35v0a.6.6,0,0,0-.72-.41.6.6,0,0,0-.41.72Z"/><path class="cls-4" d="M24.91,81c.87-.06,1.27-1,1.84-1.58a3.54,3.54,0,0,0,.88-1.08,8.67,8.67,0,0,0,.64-1.25.59.59,0,0,0-1.13-.31,6.21,6.21,0,0,1-.47.88,2.6,2.6,0,0,1-.68.86c-.2.18-.4.39-.59.59s-.46.72-.49.72c-.75,0-.76,1.21,0,1.17Z"/><path class="cls-4" d="M24.45,85.79a6.18,6.18,0,0,1,0-1.49,3.23,3.23,0,0,1,.42-1.11c.5-.56-.32-1.39-.82-.82a4.94,4.94,0,0,0-.8,3.42.59.59,0,0,0,1.17,0Z"/><path class="cls-4" d="M23.87,86.3c2.24.68,4.38,1.35,5.45,3.64.85,1.82,1.23,5,.16,6.75-.39.64.62,1.23,1,.59,1.3-2.13.93-5.59-.09-7.8-1.21-2.65-3.62-3.52-6.22-4.31-.72-.22-1,.91-.31,1.13Z"/><path class="cls-4" d="M29.35,97a8,8,0,0,0-.1,1.29c0,.75,1.19.75,1.16,0A9.36,9.36,0,0,1,30.52,97a.59.59,0,0,0-.59-.59.6.6,0,0,0-.58.59Z"/><path class="cls-4" d="M29.31,96.37a21,21,0,0,1-7.84.89,26.71,26.71,0,0,1-4-.27c-1.17-.2-2.33-.51-3.51-.67-5.05-.67-11-3.92-12.71-9-.24-.71-1.36-.4-1.12.31a11.74,11.74,0,0,0,4.29,5.76,21.32,21.32,0,0,0,8,3.9,44.26,44.26,0,0,0,8.5,1.09c3,.07,5.89.12,8.7-.9.7-.26.4-1.39-.31-1.13Z"/><path class="cls-4" d="M.29,87.27c1,.55,2,1.24,3.09,1.7a18.21,18.21,0,0,0,3.17.9,35.24,35.24,0,0,0,7.16.89,15.09,15.09,0,0,0,6.72-1.31c1.7-.78,3.63-1.47,4.56-3.16.37-.66-.64-1.25-1-.59-.83,1.51-3.43,2.56-5,3.11a16.31,16.31,0,0,1-6.36.74,37.48,37.48,0,0,1-6.22-.91A23.41,23.41,0,0,1,.88,86.27c-.66-.35-1.25.66-.59,1Z"/><path class="cls-4" d="M28.54,82.77c5.09,1.66,6.75,8.59,4.26,13a.59.59,0,0,0,1,.59c2.88-5.14.86-12.85-5-14.75-.72-.24-1,.89-.31,1.12Z"/><path class="cls-4" d="M37.61,86.56c.89.72.79,2,.83,3a12.67,12.67,0,0,1-.15,3.53,8,8,0,0,1-4.1,5.25c-.69.28-.39,1.41.31,1.13a9.15,9.15,0,0,0,4.92-6.07,15.29,15.29,0,0,0,.16-4.53c-.08-1.19-.16-2.39-1.14-3.18-.58-.47-1.41.35-.83.82Z"/><path class="cls-4" d="M39.22,95.74a6,6,0,0,1-1.5,3.12,8.88,8.88,0,0,1-3.17,1.92c-.69.27-.39,1.4.31,1.12a10,10,0,0,0,3.68-2.22,7.08,7.08,0,0,0,1.81-3.63c.16-.73-1-1-1.13-.31Z"/><path class="cls-4" d="M39.44,98.92a5.49,5.49,0,0,1-1.84,1.78,10.81,10.81,0,0,1-2.22.7.59.59,0,0,0,.31,1.13,10.51,10.51,0,0,0,2.77-1,7.44,7.44,0,0,0,2-2c.44-.61-.57-1.19-1-.59Z"/><path class="cls-4" d="M40.63,99.49c-1.08.66-1.84,1.64-3.12,1.91-.74.16-.43,1.28.31,1.13a4.59,4.59,0,0,0,1.8-.81,16.9,16.9,0,0,1,1.6-1.22.59.59,0,0,0-.59-1Z"/><path class="cls-4" d="M37.35,72.94h1.09a.59.59,0,0,0,0-1.17H37.35a.59.59,0,0,0,0,1.17Z"/><path class="cls-4" d="M43.16,97.81a1.39,1.39,0,0,0,.94.36,1.66,1.66,0,0,0,1-.13c.75-.42.54-1.39.26-2a.59.59,0,0,0-.8-.21.59.59,0,0,0-.21.8c-.05-.13,0,.1,0,.14a1,1,0,0,1,0,.14s0,.15,0,0a.49.49,0,0,1,0,.12c0,.06,0,.08,0,0s0,0,0,0,0,0,.05-.06.15,0,.09,0l-.11,0h-.33L44,97c-.08,0,0,0,0,0s.08.09,0,0a.57.57,0,0,0-.82,0,.59.59,0,0,0,0,.82Z"/></g></g></svg>